<?xml version="1.0" encoding="UTF-8" standalone="no"?>
<svg
        xmlns:dc="http://purl.org/dc/elements/1.1/"
        xmlns:cc="http://creativecommons.org/ns#"
        xmlns:rdf="http://www.w3.org/1999/02/22-rdf-syntax-ns#"
        xmlns="http://www.w3.org/2000/svg"
        version="1.1"
        id="svg2"
        xml:space="preserve"
        width="1144"
        height="568"
        viewBox="0 0 1144 568"><metadata
     id="metadata8"><rdf:RDF><cc:Work
         rdf:about=""><dc:format>image/svg+xml</dc:format><dc:type
           rdf:resource="http://purl.org/dc/dcmitype/StillImage" /><dc:title></dc:title></cc:Work></rdf:RDF></metadata><defs
     id="defs6"><clipPath
       clipPathUnits="userSpaceOnUse"
       id="clipPath18"><path
         d="M 0,0 H 1080 V 684 H 0 Z"
         id="path16" /></clipPath><clipPath
       clipPathUnits="userSpaceOnUse"
       id="clipPath22"><path
         d="M 0,0 H 1080 V 684 H 0 Z"
         clip-rule="evenodd"
         id="path20" /></clipPath><clipPath
       clipPathUnits="userSpaceOnUse"
       id="clipPath26"><path
         d="m 540,-44 v 0 771.1 0 z"
         id="path24" /></clipPath></defs><g
     id="g10"
     transform="matrix(1.3333333,0,0,-1.3333333,0,568)"><g
       id="g12"
       transform="translate(-107,-79)"><g
         id="g14" /><g
         id="g786"><g
           clip-path="url(#clipPath18)"
           id="g784"><g
             id="g774"><g
               clip-path="url(#clipPath22)"
               id="g772"><path
                 d="M 410.2,504 H 964.8 V 79.2 H 410.2 Z m 0,0 z M 964.8,79.2 Z"
                 style="fill:#f8ecd6;fill-opacity:1;fill-rule:evenodd;stroke:none"
                 id="path28" /><g
                 id="g32"><path
                   d="M 410.2,504 H 964.8 V 79.2 H 410.2 Z"
                   style="fill:none;stroke:#000000;stroke-width:0.75;stroke-linecap:butt;stroke-linejoin:round;stroke-miterlimit:10;stroke-dasharray:none;stroke-opacity:1"
                   id="path30" /></g><g
                 id="g36"><path
                   d="M 410.2,504 Z"
                   style="fill:none;stroke:#000000;stroke-width:0.75;stroke-linecap:butt;stroke-linejoin:round;stroke-miterlimit:10;stroke-dasharray:none;stroke-opacity:1"
                   id="path34" /></g><g
                 id="g40"><path
                   d="M 964.8,79.2 Z"
                   style="fill:none;stroke:#000000;stroke-width:0.75;stroke-linecap:butt;stroke-linejoin:round;stroke-miterlimit:10;stroke-dasharray:none;stroke-opacity:1"
                   id="path38" /></g><path
                 d="M 108,503.8 H 390.2 V 367.4 L 339.4,316.5 H 108 Z m 0,0 z M 390.2,316.5 Z"
                 style="fill:#efefef;fill-opacity:1;fill-rule:evenodd;stroke:none"
                 id="path42" /><path
                 d="m 339.4,316.5 10.2,40.7 40.6,10.2 z M 108,503.8 Z M 390.2,316.5 Z"
                 style="fill:#c7c7c7;fill-opacity:1;fill-rule:evenodd;stroke:none"
                 id="path44" /><g
                 id="g48"><path
                   d="m 339.4,316.5 10.2,40.7 40.6,10.2 -50.8,-50.9 H 108 V 503.8 H 390.2 V 367.4"
                   style="fill:none;stroke:#999999;stroke-width:0.75;stroke-linecap:butt;stroke-linejoin:round;stroke-miterlimit:10;stroke-dasharray:none;stroke-opacity:1"
                   id="path46" /></g><g
                 id="g52"><path
                   d="M 108,503.8 Z"
                   style="fill:none;stroke:#999999;stroke-width:0.75;stroke-linecap:butt;stroke-linejoin:round;stroke-miterlimit:10;stroke-dasharray:none;stroke-opacity:1"
                   id="path50" /></g><g
                 id="g56"><path
                   d="M 390.2,316.5 Z"
                   style="fill:none;stroke:#999999;stroke-width:0.75;stroke-linecap:butt;stroke-linejoin:round;stroke-miterlimit:10;stroke-dasharray:none;stroke-opacity:1"
                   id="path54" /></g><g
                 id="g62"><text
                   transform="matrix(1,0,0,-1,115.1,486.6)"
                   style="font-variant:normal;font-weight:normal;font-size:10px;font-family:ArialMT;-inkscape-font-specification:ArialMT;writing-mode:lr-tb;fill:#000000;fill-opacity:1;fill-rule:nonzero;stroke:none"
                   id="text60"><tspan
                     x="0 5 10.59 12.69 18.190001 20.98 25.98 31.48 39.779999 45.279999 50.869999 53.57 59.07 62.459999 67.459999 73.260002 77.959999 83.459999 88.959999 91.75 95.550003 101.14 103.84 106.63 111.63 117.43 122.13 127.63 133.13 135.83 139.72 144.72 147.50999 150.21001 155.3 161 165.7 171.2 176.78999 179.49001 183.38 186.08 188.87 191.66 196.66 202.46001 207.06 212.64999 218.14999 220.85001 224.74001 229.74001 233.13"
                     y="0"
                     id="tspan58">void compute(vType *a, vType *s, vType *t, vType *v){</tspan></text></g><g
                 id="g64" /><g
                 id="g70"><text
                   transform="matrix(1,0,0,-1,123.4,474.6)"
                   style="font-variant:normal;font-weight:normal;font-size:10px;font-family:ArialMT;-inkscape-font-specification:ArialMT;writing-mode:lr-tb;fill:#000000;fill-opacity:1;fill-rule:nonzero;stroke:none"
                   id="text68"><tspan
                     x="0 5 10.8 15.4 20.99 26.49 29.190001 31.389999 34.18 36.880001 39.080002"
                     y="0"
                     id="tspan66">vType i, j;</tspan></text></g><g
                 id="g72" /><g
                 id="g78"><text
                   transform="matrix(1,0,0,-1,120.6,450.6)"
                   style="font-variant:normal;font-weight:normal;font-size:10px;font-family:ArialMT;-inkscape-font-specification:ArialMT;writing-mode:lr-tb;fill:#000000;fill-opacity:1;fill-rule:nonzero;stroke:none"
                   id="text76"><tspan
                     x="0 2.79 8.29 11.68 14.98 17.18 19.879999 25.68 28.379999 33.970001 36.669998 39.459999 41.66 44.360001 50.16 55.650002 59.040001 61.740002 64.529999 66.629997 72.43 78.230003"
                     y="0"
                     id="tspan74">for(j = 0; j &lt; r; j++)</tspan></text></g><g
                 id="g80" /><g
                 id="g86"><text
                   transform="matrix(1,0,0,-1,126.1,438.6)"
                   style="font-variant:normal;font-weight:normal;font-size:10px;font-family:ArialMT;-inkscape-font-specification:ArialMT;writing-mode:lr-tb;fill:#000000;fill-opacity:1;fill-rule:nonzero;stroke:none"
                   id="text84"><tspan
                     x="0 3.8 7.1900001 12.28 14.98 20.780001 23.48 25.68 28.98 31.77 37.57 40.27 45.77"
                     y="0"
                     id="tspan82">*(s + j) = 0;</tspan></text></g><g
                 id="g88" /><g
                 id="g94"><text
                   transform="matrix(1,0,0,-1,120.6,414.6)"
                   style="font-variant:normal;font-weight:normal;font-size:10px;font-family:ArialMT;-inkscape-font-specification:ArialMT;writing-mode:lr-tb;fill:#000000;fill-opacity:1;fill-rule:nonzero;stroke:none"
                   id="text92"><tspan
                     x="0 2.79 8.29 11.68 14.38 17.77 19.870001 22.66 28.360001 31.15 36.650002 39.439999 42.23 44.330002 47.119999 52.82 58.400002 63.400002 66.190002 68.889999 71.089996 76.790001 82.589996 85.889999"
                     y="0"
                     id="tspan90">for (i = 0; i &lt; c; i++){</tspan></text></g><g
                 id="g96" /><g
                 id="g102"><text
                   transform="matrix(1,0,0,-1,126.1,402.6)"
                   style="font-variant:normal;font-weight:normal;font-size:10px;font-family:ArialMT;-inkscape-font-specification:ArialMT;writing-mode:lr-tb;fill:#000000;fill-opacity:1;fill-rule:nonzero;stroke:none"
                   id="text100"><tspan
                     x="0 3.8 7.1900001 9.9799995 12.68 18.48 21.18 23.379999 26.77 29.469999 35.27 38.060001 43.560001"
                     y="0"
                     id="tspan98">*(t + i) = 0;</tspan></text></g><g
                 id="g104" /><g
                 id="g110"><text
                   transform="matrix(1,0,0,-1,126.1,390.6)"
                   style="font-variant:normal;font-weight:normal;font-size:10px;font-family:ArialMT;-inkscape-font-specification:ArialMT;writing-mode:lr-tb;fill:#000000;fill-opacity:1;fill-rule:nonzero;stroke:none"
                   id="text108"><tspan
                     x="0 2.79 8.29 11.68 14.38 17.77 19.870001 22.66 28.360001 31.15 36.650002 39.439999 42.139999 44.34 47.130001 52.830002 55.619999 59.009998 61.709999 64.5 66.599998 72.400002 78.099998 81.489998"
                     y="0"
                     id="tspan106">for (j = 0; j &lt; r; j++) </tspan></text></g><g
                 id="g112" /><g
                 id="g118"><text
                   transform="matrix(1,0,0,-1,131.6,378.7)"
                   style="font-variant:normal;font-weight:normal;font-size:10px;font-family:ArialMT;-inkscape-font-specification:ArialMT;writing-mode:lr-tb;fill:#000000;fill-opacity:1;fill-rule:nonzero;stroke:none"
                   id="text116"><tspan
                     x="0 3.8900001 7.1900001 9.9799995 12.77 18.469999 21.26 23.459999 26.76 29.459999 35.259998 38.049999 41.439999 45.240002 48.630001 51.330002 54.119999 59.82 62.610001 64.709999 68.099998 71.489998 74.190002 79.989998 82.690002 86.080002 89.470001 93.269997 96.660004 102.16 104.86 110.66 113.45 115.55 119.35 122.74 125.53 131.33 134.03 136.23 139.53 142.92 145.71001 149.50999 152.21001 155.60001 159.39999 162.78999 167.88 170.58 176.38 179.08 181.28 184.58 187.97 191.27"
                     y="0"
                     id="tspan114">*(t + i) = (*(t + i)) + ((*(a + i*r + j)) * (*(v + j)));</tspan></text></g><g
                 id="g120" /><g
                 id="g126"><text
                   transform="matrix(1,0,0,-1,126.1,366.7)"
                   style="font-variant:normal;font-weight:normal;font-size:10px;font-family:ArialMT;-inkscape-font-specification:ArialMT;writing-mode:lr-tb;fill:#000000;fill-opacity:1;fill-rule:nonzero;stroke:none"
                   id="text124"><tspan
                     x="0 2.79 8.29 11.68 14.38 17.77 19.870001 22.66 28.360001 31.15 36.650002 39.439999 42.139999 44.34 47.130001 52.830002 55.619999 59.009998 61.709999 64.5 66.599998 72.400002 78.099998 81.489998 84.279999"
                     y="0"
                     id="tspan122">for (j = 0; j &lt; r; j++) {</tspan></text></g><g
                 id="g128" /><g
                 id="g134"><text
                   transform="matrix(1,0,0,-1,131.6,354.7)"
                   style="font-variant:normal;font-weight:normal;font-size:10px;font-family:ArialMT;-inkscape-font-specification:ArialMT;writing-mode:lr-tb;fill:#000000;fill-opacity:1;fill-rule:nonzero;stroke:none"
                   id="text132"><tspan
                     x="0 3.8900001 7.1900001 12.28 14.98 20.780001 23.57 25.67 29.059999 31.76 37.560001 40.259998 44.150002 47.450001 52.540001 55.330002 61.029999 63.82 65.919998 69.309998 72.099998 77.800003 80.589996 83.889999 87.279999 91.080002 94.470001 99.970001 102.76 108.46 111.25 113.45 117.25 120.64 123.34 129.14 131.92999 134.03 137.33 140.72 143.50999 147.31 150.10001 153.49001 157.28999 160.67999 163.38 166.08 171.88 174.67 176.77 180.16 183.55 186.85001 189.64"
                     y="0"
                     id="tspan130">*(s + j) = *(s + j) + ((*(a + i*r + j)) * (*(t + i))); </tspan></text></g><g
                 id="g136" /><g
                 id="g142"><text
                   transform="matrix(1,0,0,-1,126.1,342.7)"
                   style="font-variant:normal;font-weight:normal;font-size:10px;font-family:ArialMT;-inkscape-font-specification:ArialMT;writing-mode:lr-tb;fill:#000000;fill-opacity:1;fill-rule:nonzero;stroke:none"
                   id="text140"><tspan
                     x="0 3.3900001"
                     y="0"
                     id="tspan138">} </tspan></text></g><g
                 id="g144" /><g
                 id="g150"><text
                   transform="matrix(1,0,0,-1,120.6,330.7)"
                   style="font-variant:normal;font-weight:normal;font-size:10px;font-family:ArialMT;-inkscape-font-specification:ArialMT;writing-mode:lr-tb;fill:#000000;fill-opacity:1;fill-rule:nonzero;stroke:none"
                   id="text148"><tspan
                     x="0"
                     y="0"
                     id="tspan146">}</tspan></text></g><g
                 id="g156"><text
                   transform="matrix(1,0,0,-1,115.1,318.7)"
                   style="font-variant:normal;font-weight:normal;font-size:10px;font-family:ArialMT;-inkscape-font-specification:ArialMT;writing-mode:lr-tb;fill:#000000;fill-opacity:1;fill-rule:nonzero;stroke:none"
                   id="text154"><tspan
                     x="0"
                     y="0"
                     id="tspan152">}</tspan></text></g><path
                 d="m 108,267.3 h 282.8 v -137 L 339.7,79.2 H 108 Z m 0,0 z M 390.8,79.2 Z"
                 style="fill:#efefef;fill-opacity:1;fill-rule:evenodd;stroke:none"
                 id="path158" /><path
                 d="m 339.7,79.2 10.2,40.8 40.9,10.3 z M 108,267.3 Z M 390.8,79.2 Z"
                 style="fill:#c7c7c7;fill-opacity:1;fill-rule:evenodd;stroke:none"
                 id="path160" /><g
                 id="g164"><path
                   d="m 339.7,79.2 10.2,40.8 40.9,10.3 -51.1,-51.1 H 108 v 188.1 h 282.8 v -137"
                   style="fill:none;stroke:#999999;stroke-width:0.75;stroke-linecap:butt;stroke-linejoin:round;stroke-miterlimit:10;stroke-dasharray:none;stroke-opacity:1"
                   id="path162" /></g><g
                 id="g168"><path
                   d="M 108,267.3 Z"
                   style="fill:none;stroke:#999999;stroke-width:0.75;stroke-linecap:butt;stroke-linejoin:round;stroke-miterlimit:10;stroke-dasharray:none;stroke-opacity:1"
                   id="path166" /></g><g
                 id="g172"><path
                   d="M 390.8,79.2 Z"
                   style="fill:none;stroke:#999999;stroke-width:0.75;stroke-linecap:butt;stroke-linejoin:round;stroke-miterlimit:10;stroke-dasharray:none;stroke-opacity:1"
                   id="path170" /></g><g
                 id="g178"><text
                   transform="matrix(1,0,0,-1,115.1,250.1)"
                   style="font-variant:normal;font-weight:normal;font-size:10px;font-family:ArialMT;-inkscape-font-specification:ArialMT;writing-mode:lr-tb;fill:#000000;fill-opacity:1;fill-rule:nonzero;stroke:none"
                   id="text176"><tspan
                     x="0 5 10.59 12.69 18.190001 20.98 25.98 31.48 39.779999 45.279999 50.869999 53.57 59.07 62.459999 67.459999 73.260002 77.959999 83.459999 88.959999 91.75 95.550003 101.14 103.84 106.63 111.63 117.43 122.13 127.63 133.13 135.83 139.72 144.72 147.50999 150.21001 155.3 161 165.7 171.2 176.78999 179.49001 183.38 186.08 188.87 191.66 196.66 202.46001 207.06 212.64999 218.14999 220.85001 224.74001 229.74001 233.13"
                     y="0"
                     id="tspan174">void compute(vType *a, vType *s, vType *t, vType *v){</tspan></text></g><g
                 id="g180" /><g
                 id="g186"><text
                   transform="matrix(1,0,0,-1,123.4,238.1)"
                   style="font-variant:normal;font-weight:normal;font-size:10px;font-family:ArialMT;-inkscape-font-specification:ArialMT;writing-mode:lr-tb;fill:#000000;fill-opacity:1;fill-rule:nonzero;stroke:none"
                   id="text184"><tspan
                     x="0 5 10.8 15.4 20.99 26.49 29.190001 31.389999 34.18 36.880001 39.080002"
                     y="0"
                     id="tspan182">vType i, j;</tspan></text></g><g
                 id="g188" /><g
                 id="g194"><text
                   transform="matrix(1,0,0,-1,120.6,226.1)"
                   style="font-variant:normal;font-weight:normal;font-size:10px;font-family:ArialMT;-inkscape-font-specification:ArialMT;writing-mode:lr-tb;fill:#0000ff;fill-opacity:1;fill-rule:nonzero;stroke:none"
                   id="text192"><tspan
                     x="0 5.5 11 14.39 19.889999 25.389999 33.689999 39.189999 41.98 47.48 55.779999 61.279999 64.07 69.57 75.07 78.459999 83.959999 86.160004 88.260002 93.760002 95.959999 98.75 101.45 107.04 110.34 113.13 118.63 121.93 124.13 129.13 134.72 137.42 143.00999 146.31 148.50999"
                     y="0"
                     id="tspan190">#pragma omp parallel for private(j)</tspan></text></g><g
                 id="g196" /><g
                 id="g202"><text
                   transform="matrix(1,0,0,-1,120.6,214.1)"
                   style="font-variant:normal;font-weight:normal;font-size:10px;font-family:ArialMT;-inkscape-font-specification:ArialMT;writing-mode:lr-tb;fill:#000000;fill-opacity:1;fill-rule:nonzero;stroke:none"
                   id="text200"><tspan
                     x="0 2.79 8.29 11.68 14.98 17.18 19.879999 25.68 28.379999 33.970001 36.669998 39.459999 41.66 44.360001 50.16 55.650002 59.040001 61.740002 64.529999 66.629997 72.43 78.230003"
                     y="0"
                     id="tspan198">for(j = 0; j &lt; r; j++)</tspan></text></g><g
                 id="g204" /><g
                 id="g210"><text
                   transform="matrix(1,0,0,-1,126.1,202.1)"
                   style="font-variant:normal;font-weight:normal;font-size:10px;font-family:ArialMT;-inkscape-font-specification:ArialMT;writing-mode:lr-tb;fill:#000000;fill-opacity:1;fill-rule:nonzero;stroke:none"
                   id="text208"><tspan
                     x="0 3.8 7.1900001 12.28 14.98 20.780001 23.48 25.68 28.98 31.77 37.57 40.27 45.77"
                     y="0"
                     id="tspan206">*(s + j) = 0;</tspan></text></g><g
                 id="g212" /><g
                 id="g218"><text
                   transform="matrix(1,0,0,-1,120.6,190.1)"
                   style="font-variant:normal;font-weight:normal;font-size:10px;font-family:ArialMT;-inkscape-font-specification:ArialMT;writing-mode:lr-tb;fill:#0000ff;fill-opacity:1;fill-rule:nonzero;stroke:none"
                   id="text216"><tspan
                     x="0 5.5 11 14.39 19.889999 25.389999 33.689999 39.189999 41.98 47.48 55.779999 61.279999 64.07 69.57 75.07 78.459999 83.959999 86.160004 88.260002 93.760002 95.959999 98.75 101.45 107.04 110.34 113.13 118.63 121.93 124.13 129.13 134.72 137.42 143.00999 146.31 148.50999 151.21001 153.41 156.8 159.5 162.89 168.39 173.89 179.39 184.48 187.17999 189.38 194.88 200.38 203.77 209.57001 212.27 217.36 220.06 225.56 228.35001 231.74001 234.44"
                     y="0"
                     id="tspan214">#pragma omp parallel for private(i,j) reduction(+:s[0:r])</tspan></text></g><g
                 id="g220" /><g
                 id="g226"><text
                   transform="matrix(1,0,0,-1,120.6,178.2)"
                   style="font-variant:normal;font-weight:normal;font-size:10px;font-family:ArialMT;-inkscape-font-specification:ArialMT;writing-mode:lr-tb;fill:#000000;fill-opacity:1;fill-rule:nonzero;stroke:none"
                   id="text224"><tspan
                     x="0 2.79 8.29 11.68 14.38 17.77 19.870001 22.66 28.360001 31.15 36.650002 39.439999 42.23 44.330002 47.119999 52.82 58.400002 63.400002 66.190002 68.889999 71.089996 76.790001 82.589996 85.889999"
                     y="0"
                     id="tspan222">for (i = 0; i &lt; c; i++){</tspan></text></g><g
                 id="g228" /><g
                 id="g234"><text
                   transform="matrix(1,0,0,-1,126.1,166.2)"
                   style="font-variant:normal;font-weight:normal;font-size:10px;font-family:ArialMT;-inkscape-font-specification:ArialMT;writing-mode:lr-tb;fill:#000000;fill-opacity:1;fill-rule:nonzero;stroke:none"
                   id="text232"><tspan
                     x="0 3.8 7.1900001 9.9799995 12.68 18.48 21.18 23.379999 26.77 29.469999 35.27 38.060001 43.560001"
                     y="0"
                     id="tspan230">*(t + i) = 0;</tspan></text></g><g
                 id="g236" /><g
                 id="g242"><text
                   transform="matrix(1,0,0,-1,126.1,154.2)"
                   style="font-variant:normal;font-weight:normal;font-size:10px;font-family:ArialMT;-inkscape-font-specification:ArialMT;writing-mode:lr-tb;fill:#000000;fill-opacity:1;fill-rule:nonzero;stroke:none"
                   id="text240"><tspan
                     x="0 2.79 8.29 11.68 14.38 17.77 19.870001 22.66 28.360001 31.15 36.650002 39.439999 42.139999 44.34 47.130001 52.830002 55.619999 59.009998 61.709999 64.5 66.599998 72.400002 78.099998 81.489998"
                     y="0"
                     id="tspan238">for (j = 0; j &lt; r; j++) </tspan></text></g><g
                 id="g244" /><g
                 id="g250"><text
                   transform="matrix(1,0,0,-1,131.6,142.2)"
                   style="font-variant:normal;font-weight:normal;font-size:10px;font-family:ArialMT;-inkscape-font-specification:ArialMT;writing-mode:lr-tb;fill:#000000;fill-opacity:1;fill-rule:nonzero;stroke:none"
                   id="text248"><tspan
                     x="0 3.8900001 7.1900001 9.9799995 12.77 18.469999 21.26 23.459999 26.76 29.459999 35.259998 38.049999 41.439999 45.240002 48.630001 51.330002 54.119999 59.82 62.610001 64.709999 68.099998 71.489998 74.190002 79.989998 82.690002 86.080002 89.470001 93.269997 96.660004 102.16 104.86 110.66 113.45 115.55 119.35 122.74 125.53 131.33 134.03 136.23 139.53 142.92 145.71001 149.50999 152.21001 155.60001 159.39999 162.78999 167.88 170.58 176.38 179.08 181.28 184.58 187.97 191.27"
                     y="0"
                     id="tspan246">*(t + i) = (*(t + i)) + ((*(a + i*r + j)) * (*(v + j)));</tspan></text></g><g
                 id="g252" /><g
                 id="g258"><text
                   transform="matrix(1,0,0,-1,126.1,130.2)"
                   style="font-variant:normal;font-weight:normal;font-size:10px;font-family:ArialMT;-inkscape-font-specification:ArialMT;writing-mode:lr-tb;fill:#000000;fill-opacity:1;fill-rule:nonzero;stroke:none"
                   id="text256"><tspan
                     x="0 2.79 8.29 11.68 14.38 17.77 19.870001 22.66 28.360001 31.15 36.650002 39.439999 42.139999 44.34 47.130001 52.830002 55.619999 59.009998 61.709999 64.5 66.599998 72.400002 78.099998 81.489998 84.279999"
                     y="0"
                     id="tspan254">for (j = 0; j &lt; r; j++) {</tspan></text></g><g
                 id="g260" /><g
                 id="g266"><text
                   transform="matrix(1,0,0,-1,131.6,118.2)"
                   style="font-variant:normal;font-weight:normal;font-size:10px;font-family:ArialMT;-inkscape-font-specification:ArialMT;writing-mode:lr-tb;fill:#000000;fill-opacity:1;fill-rule:nonzero;stroke:none"
                   id="text264"><tspan
                     x="0 3.8900001 7.1900001 12.28 14.98 20.780001 23.57 25.67 29.059999 31.76 37.560001 40.259998 44.150002 47.450001 52.540001 55.330002 61.029999 63.82 65.919998 69.309998 72.099998 77.800003 80.589996 83.889999 87.279999 91.080002 94.470001 99.970001 102.76 108.46 111.25 113.45 117.25 120.64 123.34 129.14 131.92999 134.03 137.33 140.72 143.50999 147.31 150.10001 153.49001 157.28999 160.67999 163.38 166.08 171.88 174.67 176.77 180.16 183.55 186.85001 189.64"
                     y="0"
                     id="tspan262">*(s + j) = *(s + j) + ((*(a + i*r + j)) * (*(t + i))); </tspan></text></g><g
                 id="g268" /><g
                 id="g274"><text
                   transform="matrix(1,0,0,-1,126.1,106.2)"
                   style="font-variant:normal;font-weight:normal;font-size:10px;font-family:ArialMT;-inkscape-font-specification:ArialMT;writing-mode:lr-tb;fill:#000000;fill-opacity:1;fill-rule:nonzero;stroke:none"
                   id="text272"><tspan
                     x="0 3.3900001"
                     y="0"
                     id="tspan270">} </tspan></text></g><g
                 id="g276" /><g
                 id="g282"><text
                   transform="matrix(1,0,0,-1,120.6,94.2)"
                   style="font-variant:normal;font-weight:normal;font-size:10px;font-family:ArialMT;-inkscape-font-specification:ArialMT;writing-mode:lr-tb;fill:#000000;fill-opacity:1;fill-rule:nonzero;stroke:none"
                   id="text280"><tspan
                     x="0 3.3900001"
                     y="0"
                     id="tspan278">} </tspan></text></g><g
                 id="g288"><text
                   transform="matrix(1,0,0,-1,115.1,82.2)"
                   style="font-variant:normal;font-weight:normal;font-size:10px;font-family:ArialMT;-inkscape-font-specification:ArialMT;writing-mode:lr-tb;fill:#000000;fill-opacity:1;fill-rule:nonzero;stroke:none"
                   id="text286"><tspan
                     x="0"
                     y="0"
                     id="tspan284">}</tspan></text></g><path
                 d="m 390.2,397.7 h 10.1 v 5.3 l 10.1,-10.7 -10.1,-10.7 v 5.4 h -10.1 z m 0,5.3 z m 20.2,-21.4 z"
                 style="fill:#21709b;fill-opacity:1;fill-rule:evenodd;stroke:none"
                 id="path290" /><path
                 d="m 410,174.3 h -9.6 v -5.6 l -9.7,11.2 9.7,11.2 v -5.6 h 9.6 z m 0,-5.6 z m -19.3,22.4 z"
                 style="fill:#21709b;fill-opacity:1;fill-rule:evenodd;stroke:none"
                 id="path292" /><path
                 d="m 785.6,282.7 h 4.4 v 8.6 h 8.7 v -8.6 h 4.4 l -8.7,-8.7 z m 0,8.6 z M 803.1,274 Z"
                 style="fill:#4ea9d9;fill-opacity:1;fill-rule:evenodd;stroke:none"
                 id="path294" /><path
                 d="m 111.5,302.7 h 58.6 l 12.6,14.3 12.6,-14.3 H 212 v -3.6 0 -5.5 -12.6 h -16.7 -25.2 v 0 h -58.6 v 12.6 5.5 0 z m 0,0 z M 212,281 Z"
                 style="fill:#1b5e68;fill-opacity:1;fill-rule:evenodd;stroke:none"
                 id="path296" /><g
                 id="g300"><path
                   d="m 111.5,302.7 h 58.6 l 12.6,14.3 12.6,-14.3 H 212 v -3.6 0 -5.5 -12.6 h -16.7 -25.2 v 0 h -58.6 v 12.6 5.5 0 z"
                   style="fill:none;stroke:#13454c;stroke-width:2.0093;stroke-linecap:butt;stroke-linejoin:round;stroke-miterlimit:10;stroke-dasharray:none;stroke-opacity:1"
                   id="path298" /></g><g
                 id="g304"><path
                   d="M 111.5,302.7 Z"
                   style="fill:none;stroke:#13454c;stroke-width:2.0093;stroke-linecap:butt;stroke-linejoin:round;stroke-miterlimit:10;stroke-dasharray:none;stroke-opacity:1"
                   id="path302" /></g><g
                 id="g308"><path
                   d="M 212,281 Z"
                   style="fill:none;stroke:#13454c;stroke-width:2.0093;stroke-linecap:butt;stroke-linejoin:round;stroke-miterlimit:10;stroke-dasharray:none;stroke-opacity:1"
                   id="path306" /></g><g
                 id="g314"><text
                   transform="matrix(1,0,0,-1,141.8,286.2)"
                   style="font-variant:normal;font-weight:normal;font-size:14px;font-family:ArialMT;-inkscape-font-specification:ArialMT;writing-mode:lr-tb;fill:#ffffff;fill-opacity:1;fill-rule:nonzero;stroke:none"
                   id="text312"><tspan
                     x="0 9.3800001 17.164 21.854 24.948 32.731998 35.826"
                     y="0"
                     id="tspan310">Serial </tspan></text></g><path
                 d="m 289.7,302.7 h 58.6 v 0 h 25.2 16.7 V 290 290 284.6 281 H 373.5 L 362,269.3 348.3,281 h -58.6 v 3.6 5.4 0 z m 0,0 z M 390.2,281 Z"
                 style="fill:#1b5e68;fill-opacity:1;fill-rule:evenodd;stroke:none"
                 id="path316" /><g
                 id="g320"><path
                   d="m 289.7,302.7 h 58.6 v 0 h 25.2 16.7 V 290 290 284.6 281 H 373.5 L 362,269.3 348.3,281 h -58.6 v 3.6 5.4 0 z"
                   style="fill:none;stroke:#13454c;stroke-width:2.0093;stroke-linecap:butt;stroke-linejoin:round;stroke-miterlimit:10;stroke-dasharray:none;stroke-opacity:1"
                   id="path318" /></g><g
                 id="g324"><path
                   d="M 289.7,302.7 Z"
                   style="fill:none;stroke:#13454c;stroke-width:2.0093;stroke-linecap:butt;stroke-linejoin:round;stroke-miterlimit:10;stroke-dasharray:none;stroke-opacity:1"
                   id="path322" /></g><g
                 id="g328"><path
                   d="M 390.2,281 Z"
                   style="fill:none;stroke:#13454c;stroke-width:2.0093;stroke-linecap:butt;stroke-linejoin:round;stroke-miterlimit:10;stroke-dasharray:none;stroke-opacity:1"
                   id="path326" /></g><g
                 id="g334"><text
                   transform="matrix(1,0,0,-1,295,286.2)"
                   style="font-variant:normal;font-weight:normal;font-size:14px;font-family:ArialMT;-inkscape-font-specification:ArialMT;writing-mode:lr-tb;fill:#ffffff;fill-opacity:1;fill-rule:nonzero;stroke:none"
                   id="text332"><tspan
                     x="0 9.3800001 17.164 21.854 29.638 32.731998 35.826 43.610001 46.703999 50.694 55.383999 65.575996 74.872002 85.064003"
                     y="0"
                     id="tspan330">Parallel (CPU)</tspan></text></g><path
                 d="m 430.3,423 v 0 1 l 0.1,1.1 0.1,1 0.2,1.1 0.3,1 0.3,1.1 0.3,1 0.4,0.9 0.5,1 0.5,1 0.6,0.9 0.6,0.8 0.6,0.9 0.7,0.8 0.8,0.8 0.7,0.7 0.8,0.7 0.9,0.7 0.8,0.6 1,0.5 0.9,0.5 1,0.5 0.9,0.4 1.1,0.3 1,0.4 1,0.2 1.1,0.2 1,0.1 1.1,0.1 h 1.1 116.7 v 0 h 1 l 1.1,-0.1 1,-0.1 1.1,-0.2 1,-0.3 1,-0.3 1,-0.3 1,-0.4 1,-0.5 0.9,-0.5 0.9,-0.5 0.9,-0.7 0.9,-0.6 0.8,-0.7 0.8,-0.7 0.7,-0.8 0.7,-0.8 0.6,-0.9 0.6,-0.9 0.6,-0.9 0.5,-0.9 0.4,-1 0.4,-1 0.4,-0.9 0.3,-1.1 0.3,-1 0.2,-1.1 0.1,-1 0.1,-1.1 v -1 l 0.1,-81.7 v 0 l -0.1,-1.1 v -1 l -0.2,-1.1 -0.2,-1 -0.2,-1.1 -0.3,-1 -0.4,-1 -0.4,-1 -0.5,-0.9 -0.5,-1 -0.6,-0.9 -0.5,-0.8 -0.7,-0.9 -0.7,-0.8 -0.7,-0.8 -0.8,-0.7 -0.8,-0.7 -0.9,-0.6 -0.8,-0.6 -0.9,-0.6 -1,-0.5 -0.9,-0.5 -1,-0.4 -1.1,-0.3 -1,-0.4 -1,-0.2 -1,-0.2 -1.1,-0.1 -1.1,-0.1 h -1 l -116.7,-0.1 v 0 h -1.1 l -1.1,0.1 -1,0.2 -1.1,0.2 -1,0.2 -1,0.3 -1.1,0.4 -0.9,0.4 -1,0.4 -0.9,0.5 -1,0.6 -0.8,0.6 -0.9,0.6 -0.8,0.8 -0.7,0.7 -0.8,0.8 -0.7,0.8 -0.6,0.8 -0.6,0.9 -0.6,0.9 -0.5,1 -0.5,0.9 -0.4,1 -0.3,1 -0.3,1 -0.3,1.1 -0.2,1 -0.1,1.1 -0.1,1 v 1.1 z m 0,20.3 z M 587.8,320.9 Z"
                 style="fill:#ffffff;fill-opacity:1;fill-rule:evenodd;stroke:none"
                 id="path336" /><g
                 id="g340"><path
                   d="m 430.3,423 v 0 1 l 0.1,1.1 0.1,1 0.2,1.1 0.3,1 0.3,1.1 0.3,1 0.4,0.9 0.5,1 0.5,1 0.6,0.9 0.6,0.8 0.6,0.9 0.7,0.8 0.8,0.8 0.7,0.7 0.8,0.7 0.9,0.7 0.8,0.6 1,0.5 0.9,0.5 1,0.5 0.9,0.4 1.1,0.3 1,0.4 1,0.2 1.1,0.2 1,0.1 1.1,0.1 h 1.1 116.7 v 0 h 1 l 1.1,-0.1 1,-0.1 1.1,-0.2 1,-0.3 1,-0.3 1,-0.3 1,-0.4 1,-0.5 0.9,-0.5 0.9,-0.5 0.9,-0.7 0.9,-0.6 0.8,-0.7 0.8,-0.7 0.7,-0.8 0.7,-0.8 0.6,-0.9 0.6,-0.9 0.6,-0.9 0.5,-0.9 0.4,-1 0.4,-1 0.4,-0.9 0.3,-1.1 0.3,-1 0.2,-1.1 0.1,-1 0.1,-1.1 v -1 l 0.1,-81.7 v 0 l -0.1,-1.1 v -1 l -0.2,-1.1 -0.2,-1 -0.2,-1.1 -0.3,-1 -0.4,-1 -0.4,-1 -0.5,-0.9 -0.5,-1 -0.6,-0.9 -0.5,-0.8 -0.7,-0.9 -0.7,-0.8 -0.7,-0.8 -0.8,-0.7 -0.8,-0.7 -0.9,-0.6 -0.8,-0.6 -0.9,-0.6 -1,-0.5 -0.9,-0.5 -1,-0.4 -1.1,-0.3 -1,-0.4 -1,-0.2 -1,-0.2 -1.1,-0.1 -1.1,-0.1 h -1 l -116.7,-0.1 v 0 h -1.1 l -1.1,0.1 -1,0.2 -1.1,0.2 -1,0.2 -1,0.3 -1.1,0.4 -0.9,0.4 -1,0.4 -0.9,0.5 -1,0.6 -0.8,0.6 -0.9,0.6 -0.8,0.8 -0.7,0.7 -0.8,0.8 -0.7,0.8 -0.6,0.8 -0.6,0.9 -0.6,0.9 -0.5,1 -0.5,0.9 -0.4,1 -0.3,1 -0.3,1 -0.3,1.1 -0.2,1 -0.1,1.1 -0.1,1 v 1.1 z"
                   style="fill:none;stroke:#933904;stroke-width:0.5094;stroke-linecap:butt;stroke-linejoin:round;stroke-miterlimit:10;stroke-dasharray:none;stroke-opacity:1"
                   id="path338" /></g><g
                 id="g344"><path
                   d="M 430.3,443.3 Z"
                   style="fill:none;stroke:#933904;stroke-width:0.5094;stroke-linecap:butt;stroke-linejoin:round;stroke-miterlimit:10;stroke-dasharray:none;stroke-opacity:1"
                   id="path342" /></g><g
                 id="g348"><path
                   d="M 587.8,320.9 Z"
                   style="fill:none;stroke:#933904;stroke-width:0.5094;stroke-linecap:butt;stroke-linejoin:round;stroke-miterlimit:10;stroke-dasharray:none;stroke-opacity:1"
                   id="path346" /></g><path
                 d="m 518.3,403.9 v 0 0.3 l 0.1,0.4 v 0.3 l 0.1,0.3 v 0.3 l 0.2,0.3 v 0.3 l 0.2,0.3 0.1,0.3 0.2,0.3 0.1,0.3 0.2,0.2 0.2,0.3 0.2,0.2 0.3,0.2 0.2,0.3 0.2,0.2 0.3,0.2 0.2,0.2 0.3,0.1 0.3,0.2 0.3,0.1 0.3,0.2 h 0.3 l 0.3,0.2 h 0.3 l 0.3,0.1 h 0.3 l 0.4,0.1 h 0.3 46.9 v 0 h 0.3 L 572,410 h 0.3 l 0.4,-0.1 0.3,-0.1 0.3,-0.1 0.3,-0.1 0.3,-0.1 0.3,-0.1 0.2,-0.2 0.3,-0.1 0.3,-0.2 0.2,-0.2 0.3,-0.2 0.2,-0.3 0.2,-0.2 0.2,-0.2 0.2,-0.3 0.2,-0.2 0.2,-0.3 0.1,-0.3 0.2,-0.3 0.1,-0.3 0.1,-0.3 0.1,-0.3 0.1,-0.3 v -0.3 l 0.1,-0.3 v -0.4 -0.3 l 0.1,-24.6 h -0.1 v -0.3 -0.3 l -0.1,-0.3 v -0.3 l -0.1,-0.4 -0.1,-0.3 -0.1,-0.3 -0.1,-0.3 -0.1,-0.2 -0.2,-0.3 -0.2,-0.3 -0.2,-0.3 -0.2,-0.2 -0.2,-0.3 -0.2,-0.2 -0.2,-0.2 -0.3,-0.2 -0.2,-0.2 -0.3,-0.2 -0.3,-0.2 -0.2,-0.1 -0.3,-0.2 -0.3,-0.1 -0.3,-0.1 -0.3,-0.1 h -0.3 l -0.4,-0.1 -0.3,-0.1 h -0.3 -0.3 -46.9 v 0 h -0.3 -0.4 l -0.3,0.1 h -0.3 l -0.3,0.1 -0.3,0.1 -0.3,0.1 -0.3,0.1 -0.3,0.2 -0.3,0.1 -0.3,0.2 -0.2,0.1 -0.3,0.2 -0.2,0.3 -0.2,0.2 -0.3,0.2 -0.2,0.2 -0.2,0.3 -0.2,0.3 -0.1,0.2 -0.2,0.3 -0.1,0.3 -0.2,0.3 v 0.3 l -0.2,0.3 v 0.4 l -0.1,0.3 v 0.3 l -0.1,0.3 v 0.3 z m 0,6.2 z m 59.3,-36.9 z"
                 style="fill:#99cc99;fill-opacity:1;fill-rule:evenodd;stroke:none"
                 id="path350" /><path
                 d="M 426.1,471 H 595 V 313.7 H 426.1 Z m 0,0 z M 595,313.7 Z"
                 style="fill:#efefef;fill-opacity:1;fill-rule:evenodd;stroke:none"
                 id="path352" /><g
                 id="g356"><path
                   d="M 426.1,471 H 595 V 313.7 H 426.1 Z"
                   style="fill:none;stroke:#000000;stroke-width:0.7358;stroke-linecap:butt;stroke-linejoin:round;stroke-miterlimit:10;stroke-dasharray:none;stroke-opacity:1"
                   id="path354" /></g><g
                 id="g360"><path
                   d="M 426.1,471 Z"
                   style="fill:none;stroke:#000000;stroke-width:0.7358;stroke-linecap:butt;stroke-linejoin:round;stroke-miterlimit:10;stroke-dasharray:none;stroke-opacity:1"
                   id="path358" /></g><g
                 id="g364"><path
                   d="M 595,313.7 Z"
                   style="fill:none;stroke:#000000;stroke-width:0.7358;stroke-linecap:butt;stroke-linejoin:round;stroke-miterlimit:10;stroke-dasharray:none;stroke-opacity:1"
                   id="path362" /></g><g
                 id="g370"><text
                   transform="matrix(1,0,0,-1,470.7,451.8)"
                   style="font-variant:normal;font-weight:normal;font-size:12px;font-family:ArialMT;-inkscape-font-specification:ArialMT;writing-mode:lr-tb;fill:#000000;fill-opacity:1;fill-rule:nonzero;stroke:none"
                   id="text368"><tspan
                     x="0 8.6879997 15.372 21.372 28.056 38.051998 44.736 51.419998 57.419998 60.108002 63.408001 66.096001 72.779999"
                     y="0"
                     id="tspan366">Decomposition</tspan></text></g><g
                 id="g376"><text
                   transform="matrix(1,0,0,-1,485.4,429.8)"
                   style="font-variant:normal;font-weight:normal;font-size:10px;font-family:ArialMT;-inkscape-font-specification:ArialMT;writing-mode:lr-tb;fill:#000000;fill-opacity:1;fill-rule:nonzero;stroke:none"
                   id="text374"><tspan
                     x="0 5.0900002 10.59 18.889999 24.389999 29.889999 32.59"
                     y="0"
                     id="tspan372">compute</tspan></text></g><path
                 d="m 512.9,416.6 v 0 l 0.1,0.6 v 0.6 l 0.1,0.6 0.1,0.6 0.1,0.6 0.2,0.6 0.2,0.5 0.2,0.6 0.3,0.6 0.3,0.5 0.3,0.5 0.3,0.5 0.4,0.5 0.4,0.5 0.4,0.4 0.5,0.4 0.4,0.4 0.5,0.4 0.5,0.4 0.6,0.3 0.5,0.3 0.5,0.2 0.6,0.3 0.6,0.2 0.6,0.1 0.6,0.2 0.6,0.1 0.6,0.1 h 0.6 0.6 46.6 v 0 h 0.6 0.6 l 0.6,-0.1 0.6,-0.1 0.6,-0.2 0.6,-0.1 0.5,-0.3 0.6,-0.2 0.6,-0.2 0.5,-0.3 0.5,-0.4 0.5,-0.3 0.5,-0.4 0.4,-0.4 0.5,-0.4 0.4,-0.4 0.4,-0.5 0.4,-0.5 0.3,-0.5 0.3,-0.5 0.3,-0.5 0.3,-0.6 0.2,-0.6 0.2,-0.5 0.2,-0.6 0.1,-0.6 0.2,-0.6 v -0.6 l 0.1,-0.6 v -0.6 l 0.1,-77.5 h -0.1 v -0.6 -0.6 l -0.1,-0.6 -0.1,-0.6 -0.2,-0.6 -0.1,-0.6 -0.3,-0.6 -0.2,-0.6 -0.2,-0.5 -0.3,-0.5 -0.4,-0.5 -0.3,-0.6 -0.4,-0.4 -0.4,-0.5 -0.4,-0.4 -0.4,-0.5 -0.5,-0.4 -0.5,-0.3 -0.5,-0.4 -0.5,-0.3 -0.5,-0.3 -0.6,-0.2 -0.6,-0.3 -0.5,-0.2 -0.6,-0.1 -0.6,-0.2 -0.6,-0.1 -0.6,-0.1 h -0.6 -0.6 l -46.6,-0.1 v 0 l -0.6,0.1 h -0.6 l -0.6,0.1 -0.6,0.1 -0.6,0.1 -0.6,0.2 -0.6,0.2 -0.6,0.3 -0.5,0.2 -0.5,0.3 -0.6,0.3 -0.5,0.3 -0.5,0.4 -0.4,0.4 -0.5,0.4 -0.4,0.5 -0.4,0.4 -0.4,0.5 -0.3,0.5 -0.3,0.5 -0.3,0.6 -0.3,0.5 -0.2,0.6 -0.2,0.6 -0.2,0.6 -0.1,0.6 -0.1,0.6 -0.1,0.6 v 0.6 l -0.1,0.6 z m 0,11.6 z m 70,-100.8 z"
                 style="fill:#dceef7;fill-opacity:1;fill-rule:evenodd;stroke:none"
                 id="path378" /><path
                 d="m 518.3,364.2 v 0 0.3 0.4 l 0.1,0.3 0.1,0.3 v 0.3 l 0.1,0.3 0.1,0.3 0.2,0.3 0.1,0.3 0.1,0.3 0.2,0.3 0.2,0.3 0.2,0.2 0.2,0.2 0.2,0.3 0.3,0.2 0.2,0.2 0.2,0.2 0.3,0.2 0.3,0.2 0.3,0.1 0.3,0.1 0.3,0.2 0.3,0.1 0.3,0.1 h 0.3 l 0.3,0.1 h 0.3 l 0.4,0.1 h 0.3 46.9 v 0 h 0.3 l 0.3,-0.1 h 0.3 l 0.3,-0.1 0.3,-0.1 h 0.4 l 0.2,-0.2 0.3,-0.1 0.3,-0.1 0.3,-0.1 0.3,-0.2 0.3,-0.2 0.2,-0.2 0.3,-0.2 0.2,-0.2 0.2,-0.3 0.2,-0.2 0.2,-0.3 0.2,-0.2 0.2,-0.3 0.1,-0.3 0.1,-0.3 0.2,-0.3 0.1,-0.3 0.1,-0.3 v -0.3 l 0.1,-0.3 v -0.3 l 0.1,-0.4 v -0.3 -24.6 0 -0.3 -0.3 l -0.1,-0.3 v -0.3 l -0.1,-0.3 -0.1,-0.4 -0.1,-0.2 -0.1,-0.3 -0.2,-0.3 -0.1,-0.3 -0.2,-0.3 -0.2,-0.3 -0.2,-0.2 -0.2,-0.3 -0.2,-0.2 -0.2,-0.2 -0.3,-0.2 -0.2,-0.2 -0.3,-0.2 -0.3,-0.2 -0.3,-0.1 -0.3,-0.1 -0.2,-0.2 -0.3,-0.1 -0.4,-0.1 h -0.3 l -0.3,-0.1 H 572 l -0.3,-0.1 h -0.3 -46.9 v 0 h -0.3 -0.4 l -0.3,0.1 h -0.3 l -0.3,0.1 -0.3,0.1 -0.3,0.1 -0.3,0.1 -0.3,0.2 -0.3,0.1 -0.3,0.2 -0.3,0.2 -0.2,0.2 -0.2,0.2 -0.3,0.2 -0.2,0.2 -0.2,0.3 -0.2,0.2 -0.2,0.3 -0.2,0.3 -0.1,0.2 -0.1,0.4 -0.2,0.2 -0.1,0.3 -0.1,0.4 v 0.3 l -0.1,0.3 -0.1,0.3 v 0.3 0.3 z m 0,6.2 z m 59.2,-36.9 z"
                 style="fill:#a6d4ec;fill-opacity:1;fill-rule:evenodd;stroke:none"
                 id="path380" /><g
                 id="g386"><text
                   transform="matrix(1,0,0,-1,537.6,418)"
                   style="font-variant:normal;font-weight:normal;font-size:10px;font-family:ArialMT;-inkscape-font-specification:ArialMT;writing-mode:lr-tb;fill:#000000;fill-opacity:1;fill-rule:nonzero;stroke:none"
                   id="text384"><tspan
                     x="0 2.79 8.29 11.68 14.98 17.18"
                     y="0"
                     id="tspan382">for(i)</tspan></text></g><path
                 d="m 525.3,352.9 h 45.2 v -13.1 h -45.2 z m 0,0 z m 45.2,-13.1 z"
                 style="fill:#21709b;fill-opacity:1;fill-rule:evenodd;stroke:none"
                 id="path388" /><g
                 id="g394"><text
                   transform="matrix(1,0,0,-1,535.4,342.3)"
                   style="font-variant:normal;font-weight:normal;font-size:10px;font-family:ArialMT;-inkscape-font-specification:ArialMT;writing-mode:lr-tb;fill:#ffffff;fill-opacity:1;fill-rule:nonzero;stroke:none"
                   id="text392"><tspan
                     x="0 7.1999998 14.4 19.9"
                     y="0"
                     id="tspan390">CU_s</tspan></text></g><g
                 id="g400"><text
                   transform="matrix(1,0,0,-1,537.6,360.4)"
                   style="font-variant:normal;font-weight:normal;font-size:10px;font-family:ArialMT;-inkscape-font-specification:ArialMT;writing-mode:lr-tb;fill:#000000;fill-opacity:1;fill-rule:nonzero;stroke:none"
                   id="text398"><tspan
                     x="0 2.79 8.29 11.68 14.98 17.18"
                     y="0"
                     id="tspan396">for(j)</tspan></text></g><path
                 d="m 525.3,392.6 h 45.2 v -13.1 h -45.2 z m 0,0 z m 45.2,-13.1 z"
                 style="fill:#336633;fill-opacity:1;fill-rule:evenodd;stroke:none"
                 id="path402" /><g
                 id="g408"><text
                   transform="matrix(1,0,0,-1,536.6,382)"
                   style="font-variant:normal;font-weight:normal;font-size:10px;font-family:ArialMT;-inkscape-font-specification:ArialMT;writing-mode:lr-tb;fill:#ffffff;fill-opacity:1;fill-rule:nonzero;stroke:none"
                   id="text406"><tspan
                     x="0 7.1999998 14.4 19.9"
                     y="0"
                     id="tspan404">CU_t</tspan></text></g><g
                 id="g414"><text
                   transform="matrix(1,0,0,-1,537.6,400.1)"
                   style="font-variant:normal;font-weight:normal;font-size:10px;font-family:ArialMT;-inkscape-font-specification:ArialMT;writing-mode:lr-tb;fill:#000000;fill-opacity:1;fill-rule:nonzero;stroke:none"
                   id="text412"><tspan
                     x="0 2.79 8.29 11.68 14.98 17.18"
                     y="0"
                     id="tspan410">for(j)</tspan></text></g><path
                 d="m 437,375 v 0 0.5 0.5 l 0.1,0.5 0.1,0.5 0.1,0.5 0.1,0.5 0.2,0.5 0.2,0.4 0.2,0.5 0.2,0.4 0.3,0.4 0.3,0.5 0.3,0.4 0.3,0.3 0.4,0.4 0.3,0.3 0.4,0.4 0.4,0.3 0.4,0.2 0.5,0.3 0.4,0.3 0.5,0.2 0.4,0.2 0.5,0.1 0.5,0.2 0.5,0.1 0.4,0.1 h 0.5 l 0.5,0.1 h 0.5 50.2 v 0 h 0.5 l 0.5,-0.1 h 0.5 l 0.5,-0.1 0.5,-0.1 0.4,-0.2 0.5,-0.1 0.5,-0.2 0.4,-0.2 0.5,-0.3 0.4,-0.3 0.4,-0.2 0.4,-0.3 0.4,-0.4 0.3,-0.3 0.4,-0.4 0.3,-0.4 0.3,-0.4 0.3,-0.4 0.3,-0.4 0.2,-0.4 0.2,-0.5 0.2,-0.4 0.2,-0.5 0.1,-0.5 0.1,-0.5 0.1,-0.5 0.1,-0.5 v -0.5 -0.5 l 0.1,-38.4 v 0 -0.5 l -0.1,-0.5 v -0.5 l -0.1,-0.5 -0.1,-0.5 -0.2,-0.5 -0.2,-0.4 -0.2,-0.5 -0.2,-0.5 -0.2,-0.4 -0.3,-0.4 -0.2,-0.4 -0.4,-0.4 -0.3,-0.4 -0.3,-0.4 -0.4,-0.3 -0.4,-0.3 -0.4,-0.4 -0.4,-0.2 -0.4,-0.3 -0.4,-0.2 -0.5,-0.2 -0.5,-0.2 -0.4,-0.2 -0.5,-0.2 -0.5,-0.1 -0.5,-0.1 h -0.5 l -0.5,-0.1 h -0.5 -50.2 v 0 h -0.5 -0.5 l -0.5,0.1 -0.4,0.1 -0.5,0.1 -0.5,0.2 -0.5,0.1 -0.4,0.2 -0.5,0.2 -0.4,0.3 -0.5,0.2 -0.4,0.3 -0.4,0.3 -0.4,0.3 -0.3,0.4 -0.4,0.4 -0.3,0.3 -0.3,0.4 -0.3,0.4 -0.3,0.5 -0.2,0.4 -0.2,0.5 -0.2,0.5 -0.2,0.4 -0.1,0.5 -0.1,0.5 -0.1,0.5 -0.1,0.5 v 0.5 0.5 z m 0,9.6 z M 506.3,327 Z"
                 style="fill:#cccccc;fill-opacity:1;fill-rule:evenodd;stroke:none"
                 id="path416" /><g
                 id="g422"><text
                   transform="matrix(1,0,0,-1,461.4,374.8)"
                   style="font-variant:normal;font-weight:normal;font-size:10px;font-family:ArialMT;-inkscape-font-specification:ArialMT;writing-mode:lr-tb;fill:#000000;fill-opacity:1;fill-rule:nonzero;stroke:none"
                   id="text420"><tspan
                     x="0 2.7 8.29 11.59 14.98 17.08"
                     y="0"
                     id="tspan418">for(j)</tspan></text></g><path
                 d="m 449.2,351.1 h 44.9 v -12.3 h -44.9 z m 0,0 z m 44.9,-12.3 z"
                 style="fill:#606060;fill-opacity:1;fill-rule:evenodd;stroke:none"
                 id="path424" /><g
                 id="g430"><text
                   transform="matrix(1,0,0,-1,459.2,341)"
                   style="font-variant:normal;font-weight:normal;font-size:10px;font-family:ArialMT;-inkscape-font-specification:ArialMT;writing-mode:lr-tb;fill:#ffffff;fill-opacity:1;fill-rule:nonzero;stroke:none"
                   id="text428"><tspan
                     x="0 7.1999998 14.4 19.9"
                     y="0"
                     id="tspan426">CU_s</tspan></text></g><path
                 d="m 640.9,396.1 h 9.4 v 4.7 l 9.3,-9.3 -9.3,-9.4 v 4.7 h -9.4 z m 0,4.7 z m 18.7,-18.7 z"
                 style="fill:#4ea9d9;fill-opacity:1;fill-rule:evenodd;stroke:none"
                 id="path432" /><path
                 d="M 640.3,470.6 H 942.7 V 313.7 H 640.3 Z m 0,0 z M 942.7,313.7 Z"
                 style="fill:#efefef;fill-opacity:1;fill-rule:evenodd;stroke:none"
                 id="path434" /><g
                 id="g438"><path
                   d="M 640.3,470.6 H 942.7 V 313.7 H 640.3 Z"
                   style="fill:none;stroke:#000000;stroke-width:0.7358;stroke-linecap:butt;stroke-linejoin:round;stroke-miterlimit:10;stroke-dasharray:none;stroke-opacity:1"
                   id="path436" /></g><g
                 id="g442"><path
                   d="M 640.3,470.6 Z"
                   style="fill:none;stroke:#000000;stroke-width:0.7358;stroke-linecap:butt;stroke-linejoin:round;stroke-miterlimit:10;stroke-dasharray:none;stroke-opacity:1"
                   id="path440" /></g><g
                 id="g446"><path
                   d="M 942.7,313.7 Z"
                   style="fill:none;stroke:#000000;stroke-width:0.7358;stroke-linecap:butt;stroke-linejoin:round;stroke-miterlimit:10;stroke-dasharray:none;stroke-opacity:1"
                   id="path444" /></g><g
                 id="g452"><text
                   transform="matrix(1,0,0,-1,733.9,451.4)"
                   style="font-variant:normal;font-weight:normal;font-size:12px;font-family:ArialMT;-inkscape-font-specification:ArialMT;writing-mode:lr-tb;fill:#000000;fill-opacity:1;fill-rule:nonzero;stroke:none"
                   id="text450"><tspan
                     x="0 8.6879997 15.372 22.056 28.74 35.532001 42.216 48.900002 55.584 61.584 68.267998 71.652 78.335999 85.127998 91.811996 94.416 100.416 106.416 109.02"
                     y="0"
                     id="tspan448">Dependence analysis</tspan></text></g><path
                 d="m 647.5,423.4 v 0 1.1 l 0.1,1 0.2,1 0.1,1 0.3,1.1 0.3,1 0.4,1 0.3,0.9 0.5,1 0.5,0.9 0.5,0.9 0.6,0.8 0.7,0.8 0.6,0.8 0.8,0.8 0.7,0.7 0.8,0.7 0.8,0.6 0.9,0.6 0.9,0.6 0.9,0.5 0.9,0.4 1,0.4 1,0.4 1,0.3 1,0.2 1,0.2 1.1,0.1 1,0.1 h 1 248.2 v 0 h 1 l 1.1,-0.1 1,-0.1 1,-0.2 1,-0.2 1,-0.4 1,-0.3 1,-0.4 0.9,-0.4 0.9,-0.6 0.9,-0.5 0.9,-0.6 0.8,-0.6 0.8,-0.7 0.8,-0.7 0.7,-0.8 0.7,-0.8 0.6,-0.8 0.6,-0.8 0.5,-0.9 0.5,-0.9 0.5,-1 0.4,-0.9 0.3,-1 0.3,-1 0.3,-1.1 0.1,-1 0.2,-1 0.1,-1 v -1.1 -79.7 0 -1 l -0.1,-1.1 -0.1,-1 -0.2,-1 -0.3,-1.1 -0.3,-1 -0.3,-0.9 -0.4,-1 -0.5,-0.9 -0.5,-0.9 -0.5,-0.9 -0.6,-0.9 -0.6,-0.8 -0.7,-0.8 -0.7,-0.8 -0.8,-0.7 -0.8,-0.7 -0.8,-0.6 -0.9,-0.6 -0.9,-0.5 -0.9,-0.5 -0.9,-0.5 -1,-0.4 -1,-0.3 -1,-0.3 -1,-0.3 -1,-0.1 -1,-0.2 -1.1,-0.1 h -1 l -248.2,-0.1 v 0.1 h -1 l -1,0.1 -1.1,0.1 -1,0.2 -1,0.3 -1,0.2 -1,0.4 -1,0.4 -0.9,0.5 -0.9,0.4 -0.9,0.6 -0.9,0.6 -0.8,0.6 -0.8,0.7 -0.7,0.7 -0.8,0.8 -0.6,0.8 -0.7,0.8 -0.6,0.8 -0.5,0.9 -0.5,1 -0.5,0.9 -0.3,1 -0.4,0.9 -0.3,1 -0.3,1.1 -0.1,1 -0.2,1 -0.1,1.1 v 1 z m 0,19.9 z m 288,-119.6 z"
                 style="fill:#ffffff;fill-opacity:1;fill-rule:evenodd;stroke:none"
                 id="path454" /><g
                 id="g458"><path
                   d="m 647.5,423.4 v 0 1.1 l 0.1,1 0.2,1 0.1,1 0.3,1.1 0.3,1 0.4,1 0.3,0.9 0.5,1 0.5,0.9 0.5,0.9 0.6,0.8 0.7,0.8 0.6,0.8 0.8,0.8 0.7,0.7 0.8,0.7 0.8,0.6 0.9,0.6 0.9,0.6 0.9,0.5 0.9,0.4 1,0.4 1,0.4 1,0.3 1,0.2 1,0.2 1.1,0.1 1,0.1 h 1 248.2 v 0 h 1 l 1.1,-0.1 1,-0.1 1,-0.2 1,-0.2 1,-0.4 1,-0.3 1,-0.4 0.9,-0.4 0.9,-0.6 0.9,-0.5 0.9,-0.6 0.8,-0.6 0.8,-0.7 0.8,-0.7 0.7,-0.8 0.7,-0.8 0.6,-0.8 0.6,-0.8 0.5,-0.9 0.5,-0.9 0.5,-1 0.4,-0.9 0.3,-1 0.3,-1 0.3,-1.1 0.1,-1 0.2,-1 0.1,-1 v -1.1 -79.7 0 -1 l -0.1,-1.1 -0.1,-1 -0.2,-1 -0.3,-1.1 -0.3,-1 -0.3,-0.9 -0.4,-1 -0.5,-0.9 -0.5,-0.9 -0.5,-0.9 -0.6,-0.9 -0.6,-0.8 -0.7,-0.8 -0.7,-0.8 -0.8,-0.7 -0.8,-0.7 -0.8,-0.6 -0.9,-0.6 -0.9,-0.5 -0.9,-0.5 -0.9,-0.5 -1,-0.4 -1,-0.3 -1,-0.3 -1,-0.3 -1,-0.1 -1,-0.2 -1.1,-0.1 h -1 l -248.2,-0.1 v 0.1 h -1 l -1,0.1 -1.1,0.1 -1,0.2 -1,0.3 -1,0.2 -1,0.4 -1,0.4 -0.9,0.5 -0.9,0.4 -0.9,0.6 -0.9,0.6 -0.8,0.6 -0.8,0.7 -0.7,0.7 -0.8,0.8 -0.6,0.8 -0.7,0.8 -0.6,0.8 -0.5,0.9 -0.5,1 -0.5,0.9 -0.3,1 -0.4,0.9 -0.3,1 -0.3,1.1 -0.1,1 -0.2,1 -0.1,1.1 v 1 z"
                   style="fill:none;stroke:#933904;stroke-width:0.5094;stroke-linecap:butt;stroke-linejoin:round;stroke-miterlimit:10;stroke-dasharray:none;stroke-opacity:1"
                   id="path456" /></g><g
                 id="g462"><path
                   d="M 647.5,443.3 Z"
                   style="fill:none;stroke:#933904;stroke-width:0.5094;stroke-linecap:butt;stroke-linejoin:round;stroke-miterlimit:10;stroke-dasharray:none;stroke-opacity:1"
                   id="path460" /></g><g
                 id="g466"><path
                   d="M 935.5,323.7 Z"
                   style="fill:none;stroke:#933904;stroke-width:0.5094;stroke-linecap:butt;stroke-linejoin:round;stroke-miterlimit:10;stroke-dasharray:none;stroke-opacity:1"
                   id="path464" /></g><path
                 d="m 651.9,399.1 v 0 0.7 0.7 l 0.2,0.6 0.1,0.7 0.1,0.6 0.2,0.7 0.2,0.6 0.3,0.6 0.3,0.6 0.3,0.6 0.3,0.6 0.4,0.5 0.4,0.6 0.4,0.5 0.5,0.4 0.5,0.5 0.5,0.4 0.5,0.4 0.6,0.4 0.6,0.4 0.5,0.3 0.6,0.3 0.6,0.2 0.7,0.3 0.6,0.1 0.7,0.2 0.6,0.1 0.7,0.1 h 0.7 l 0.6,0.1 h 58.5 v 0 l 0.6,-0.1 h 0.7 l 0.6,-0.1 0.7,-0.1 0.6,-0.2 0.7,-0.1 0.6,-0.3 0.6,-0.2 0.6,-0.3 0.6,-0.3 0.6,-0.4 0.5,-0.4 0.6,-0.4 0.5,-0.4 0.4,-0.5 0.5,-0.4 0.4,-0.6 0.4,-0.5 0.4,-0.5 0.4,-0.6 0.3,-0.6 0.3,-0.6 0.2,-0.6 0.2,-0.6 0.2,-0.7 0.2,-0.6 0.1,-0.7 0.1,-0.6 v -0.7 l 0.1,-0.7 v -50.9 0 -0.6 l -0.1,-0.7 -0.1,-0.6 -0.1,-0.7 -0.2,-0.7 -0.1,-0.6 -0.3,-0.6 -0.2,-0.6 -0.3,-0.6 -0.3,-0.6 -0.4,-0.6 -0.3,-0.5 -0.4,-0.6 -0.5,-0.5 -0.5,-0.4 -0.4,-0.5 -0.5,-0.4 -0.6,-0.4 -0.5,-0.4 -0.6,-0.4 -0.6,-0.3 -0.6,-0.3 -0.6,-0.2 -0.6,-0.2 -0.7,-0.2 -0.6,-0.2 -0.7,-0.1 -0.6,-0.1 h -0.7 l -0.6,-0.1 h -58.5 v 0 H 664 l -0.7,0.1 -0.7,0.1 -0.6,0.1 -0.7,0.1 -0.6,0.2 -0.7,0.3 -0.6,0.2 -0.6,0.3 -0.5,0.3 -0.6,0.3 -0.6,0.4 -0.5,0.4 -0.5,0.5 -0.5,0.5 -0.5,0.4 -0.4,0.5 -0.4,0.6 -0.4,0.5 -0.3,0.6 -0.3,0.6 -0.3,0.5 -0.3,0.7 -0.2,0.6 -0.2,0.6 -0.1,0.7 -0.1,0.7 -0.2,0.6 v 0.7 0.6 z m 0,12.8 z m 83.9,-76.4 z"
                 style="fill:#cccccc;fill-opacity:1;fill-rule:evenodd;stroke:none"
                 id="path468" /><g
                 id="g474"><text
                   transform="matrix(1,0,0,-1,683.6,400.4)"
                   style="font-variant:normal;font-weight:normal;font-size:10px;font-family:ArialMT;-inkscape-font-specification:ArialMT;writing-mode:lr-tb;fill:#000000;fill-opacity:1;fill-rule:nonzero;stroke:none"
                   id="text472"><tspan
                     x="0 2.7 8.29 11.59 14.98 17.08"
                     y="0"
                     id="tspan470">for(j)</tspan></text></g><path
                 d="m 672.6,379.8 h 42.5 v -17.7 h -42.5 z m 0,0 z m 42.5,-17.7 z"
                 style="fill:#606060;fill-opacity:1;fill-rule:evenodd;stroke:none"
                 id="path476" /><g
                 id="g482"><text
                   transform="matrix(1,0,0,-1,681.4,366.9)"
                   style="font-variant:normal;font-weight:normal;font-size:10px;font-family:ArialMT;-inkscape-font-specification:ArialMT;writing-mode:lr-tb;fill:#ffffff;fill-opacity:1;fill-rule:nonzero;stroke:none"
                   id="text480"><tspan
                     x="0 7.1999998 14.4 19.9"
                     y="0"
                     id="tspan478">CU_s</tspan></text></g><g
                 id="g488"><text
                   transform="matrix(1,0,0,-1,765.2,434.7)"
                   style="font-variant:normal;font-weight:normal;font-size:10px;font-family:ArialMT;-inkscape-font-specification:ArialMT;writing-mode:lr-tb;fill:#000000;fill-opacity:1;fill-rule:nonzero;stroke:none"
                   id="text486"><tspan
                     x="0 5.0900002 10.59 18.889999 24.389999 29.889999 32.68"
                     y="0"
                     id="tspan484">compute</tspan></text></g><path
                 d="m 741.1,412.3 v 0 0.9 l 0.1,0.9 0.1,0.9 0.2,0.8 0.2,0.9 0.2,0.8 0.3,0.8 0.4,0.9 0.4,0.8 0.4,0.7 0.4,0.8 0.5,0.7 0.6,0.7 0.5,0.7 0.6,0.6 0.7,0.6 0.6,0.6 0.7,0.5 0.8,0.5 0.7,0.5 0.8,0.4 0.8,0.4 0.8,0.3 0.8,0.3 0.9,0.2 0.8,0.2 0.9,0.2 0.8,0.1 0.9,0.1 h 0.9 153.6 v 0 h 0.9 l 0.9,-0.1 0.8,-0.1 0.9,-0.2 0.9,-0.2 0.8,-0.2 0.8,-0.3 0.8,-0.3 0.8,-0.4 0.8,-0.5 0.8,-0.4 0.7,-0.5 0.7,-0.5 0.7,-0.6 0.6,-0.6 0.6,-0.6 0.5,-0.7 0.6,-0.7 0.5,-0.7 0.5,-0.8 0.4,-0.8 0.3,-0.7 0.4,-0.9 0.3,-0.8 0.2,-0.8 0.2,-0.9 0.2,-0.8 0.1,-0.9 0.1,-0.9 v -0.9 -67.2 0 -0.9 -0.9 l -0.2,-0.8 -0.1,-0.9 -0.2,-0.8 -0.3,-0.9 -0.3,-0.8 -0.3,-0.8 -0.4,-0.8 -0.4,-0.8 -0.5,-0.7 -0.5,-0.7 -0.5,-0.8 -0.6,-0.6 -0.6,-0.7 -0.6,-0.6 -0.7,-0.5 -0.7,-0.6 -0.7,-0.5 -0.8,-0.4 -0.7,-0.4 -0.8,-0.4 -0.9,-0.4 -0.8,-0.2 -0.8,-0.3 -0.9,-0.2 -0.8,-0.2 -0.9,-0.1 h -0.9 l -0.9,-0.1 H 757.9 v 0 H 757 l -0.9,0.1 -0.8,0.1 -0.9,0.1 -0.8,0.2 -0.9,0.3 -0.8,0.3 -0.8,0.3 -0.8,0.4 -0.8,0.4 -0.7,0.5 -0.8,0.5 -0.7,0.5 -0.6,0.6 -0.7,0.6 -0.6,0.6 -0.5,0.7 -0.6,0.7 -0.5,0.7 -0.4,0.8 -0.4,0.8 -0.4,0.8 -0.4,0.8 -0.3,0.8 -0.2,0.9 -0.2,0.8 -0.2,0.9 -0.1,0.8 -0.1,0.9 v 0.9 z m 0,16.8 z M 928.3,328.3 Z"
                 style="fill:#dceef7;fill-opacity:1;fill-rule:evenodd;stroke:none"
                 id="path490" /><g
                 id="g496"><text
                   transform="matrix(1,0,0,-1,823.7,418.9)"
                   style="font-variant:normal;font-weight:normal;font-size:10px;font-family:ArialMT;-inkscape-font-specification:ArialMT;writing-mode:lr-tb;fill:#000000;fill-opacity:1;fill-rule:nonzero;stroke:none"
                   id="text494"><tspan
                     x="0 2.7 8.29 11.59 14.98 17.08"
                     y="0"
                     id="tspan492">for(i)</tspan></text></g><path
                 d="m 835.2,401.5 v 0 l 0.1,0.7 v 0.7 l 0.1,0.7 0.1,0.7 0.2,0.6 0.2,0.7 0.2,0.7 0.3,0.6 0.3,0.6 0.3,0.6 0.4,0.6 0.4,0.6 0.4,0.5 0.4,0.5 0.5,0.6 0.5,0.4 0.5,0.5 0.6,0.4 0.5,0.4 0.6,0.4 0.6,0.3 0.7,0.3 0.6,0.2 0.6,0.3 0.7,0.2 0.7,0.1 0.6,0.1 0.7,0.1 0.7,0.1 h 0.7 59.5 v 0 h 0.7 l 0.7,-0.1 0.7,-0.1 0.7,-0.1 0.6,-0.1 0.7,-0.2 0.6,-0.3 0.7,-0.3 0.6,-0.2 0.6,-0.4 0.6,-0.3 0.6,-0.4 0.5,-0.4 0.6,-0.5 0.4,-0.5 0.5,-0.5 0.5,-0.5 0.4,-0.5 0.4,-0.6 0.3,-0.6 0.3,-0.6 0.4,-0.6 0.2,-0.7 0.2,-0.6 0.2,-0.7 0.2,-0.6 0.1,-0.7 0.1,-0.7 0.1,-0.7 v -0.7 -52.8 0 -0.7 -0.7 l -0.1,-0.7 -0.1,-0.7 -0.2,-0.6 -0.2,-0.7 -0.2,-0.6 -0.3,-0.7 -0.3,-0.6 -0.3,-0.6 -0.4,-0.6 -0.4,-0.5 -0.4,-0.6 -0.5,-0.5 -0.4,-0.5 -0.5,-0.5 -0.6,-0.4 -0.5,-0.4 -0.6,-0.4 -0.6,-0.4 -0.6,-0.3 -0.6,-0.3 -0.6,-0.3 -0.7,-0.2 -0.7,-0.2 -0.6,-0.2 -0.7,-0.1 -0.7,-0.1 h -0.7 l -0.7,-0.1 h -59.5 v 0 h -0.7 l -0.7,0.1 -0.7,0.1 -0.6,0.1 -0.7,0.1 -0.7,0.2 -0.6,0.3 -0.6,0.2 -0.7,0.3 -0.6,0.3 -0.6,0.4 -0.5,0.4 -0.6,0.4 -0.5,0.5 -0.5,0.4 -0.5,0.5 -0.4,0.6 -0.4,0.5 -0.4,0.6 -0.4,0.6 -0.3,0.6 -0.3,0.6 -0.3,0.7 -0.2,0.6 -0.2,0.7 -0.2,0.6 -0.1,0.7 -0.1,0.7 v 0.7 l -0.1,0.7 z m 0,13.2 z m 85.9,-79.2 z"
                 style="fill:#a6d4ec;fill-opacity:1;fill-rule:evenodd;stroke:none"
                 id="path498" /><g
                 id="g504"><text
                   transform="matrix(1,0,0,-1,865.3,403.5)"
                   style="font-variant:normal;font-weight:normal;font-size:10px;font-family:ArialMT;-inkscape-font-specification:ArialMT;writing-mode:lr-tb;fill:#000000;fill-opacity:1;fill-rule:nonzero;stroke:none"
                   id="text502"><tspan
                     x="0 2.7 8.29 11.59 14.98 17.08"
                     y="0"
                     id="tspan500">for(j)</tspan></text></g><g
                 id="g508"><path
                   d="m 898.1,370.9 h 15.8 v -29.8 h -38.4 v 6.3"
                   style="fill:none;stroke:#000000;stroke-width:1.4433;stroke-linecap:butt;stroke-linejoin:round;stroke-miterlimit:10;stroke-dasharray:none;stroke-opacity:1"
                   id="path506" /></g><path
                 d="m 875.5,362.7 -5.3,-16 h 10.7 z"
                 style="fill:#000000;fill-opacity:1;fill-rule:evenodd;stroke:none"
                 id="path510" /><path
                 d="m 852.9,379.1 h 45.2 v -16.4 h -45.2 z m 0,0 z m 45.2,-16.4 z"
                 style="fill:#21709b;fill-opacity:1;fill-rule:evenodd;stroke:none"
                 id="path512" /><g
                 id="g518"><text
                   transform="matrix(1,0,0,-1,862.8,366.9)"
                   style="font-variant:normal;font-weight:normal;font-size:10px;font-family:'Liberation Sans';-inkscape-font-specification:LiberationSans;writing-mode:lr-tb;fill:#000000;fill-opacity:1;fill-rule:nonzero;stroke:none"
                   id="text516"><tspan
                     x="0 7.1999998 14.4 19.99"
                     y="0"
                     id="tspan514">CU_a</tspan></text></g><g
                 id="g524"><text
                   transform="matrix(1,0,0,-1,881.2,344.8)"
                   style="font-variant:normal;font-weight:normal;font-size:10px;font-family:ArialMT;-inkscape-font-specification:ArialMT;writing-mode:lr-tb;fill:#000000;fill-opacity:1;fill-rule:nonzero;stroke:none"
                   id="text522"><tspan
                     x="0 7.1999998 13.6 22.700001 25.4"
                     y="0"
                     id="tspan520">RAW s</tspan></text></g><path
                 d="m 748.1,401.5 v 0 0.7 l 0.1,0.7 0.1,0.7 0.1,0.7 0.1,0.6 0.2,0.7 0.3,0.7 0.2,0.6 0.3,0.6 0.3,0.6 0.4,0.6 0.4,0.6 0.4,0.5 0.5,0.5 0.4,0.6 0.6,0.4 0.5,0.5 0.5,0.4 0.6,0.4 0.6,0.4 0.6,0.3 0.6,0.3 0.6,0.2 0.7,0.3 0.7,0.2 0.6,0.1 0.7,0.1 0.7,0.1 0.7,0.1 h 0.7 57.2 v 0 h 0.7 l 0.7,-0.1 0.6,-0.1 0.7,-0.1 0.7,-0.1 0.6,-0.2 0.7,-0.3 0.6,-0.3 0.7,-0.2 0.6,-0.4 0.5,-0.3 0.6,-0.4 0.6,-0.4 0.5,-0.5 0.5,-0.5 0.5,-0.5 0.4,-0.5 0.4,-0.5 0.4,-0.6 0.4,-0.6 0.3,-0.6 0.3,-0.6 0.2,-0.7 0.3,-0.6 0.2,-0.7 0.1,-0.6 0.2,-0.7 v -0.7 l 0.1,-0.7 v -0.7 l 0.1,-52.8 v 0 -0.7 l -0.1,-0.7 -0.1,-0.7 -0.1,-0.7 -0.2,-0.6 -0.2,-0.7 -0.2,-0.6 -0.3,-0.7 -0.3,-0.6 -0.3,-0.6 -0.4,-0.6 -0.3,-0.5 -0.5,-0.6 -0.4,-0.5 -0.5,-0.5 -0.5,-0.5 -0.5,-0.4 -0.6,-0.4 -0.6,-0.4 -0.5,-0.4 -0.6,-0.3 -0.7,-0.3 -0.6,-0.3 -0.6,-0.2 -0.7,-0.2 -0.7,-0.2 -0.7,-0.1 -0.6,-0.1 h -0.7 l -0.7,-0.1 h -57.2 v 0 h -0.7 l -0.7,0.1 -0.7,0.1 -0.7,0.1 -0.6,0.1 -0.7,0.2 -0.7,0.3 -0.6,0.2 -0.6,0.3 -0.6,0.3 -0.6,0.4 -0.6,0.4 -0.5,0.4 -0.5,0.5 -0.6,0.4 -0.4,0.5 -0.5,0.6 -0.4,0.5 -0.4,0.6 -0.4,0.6 -0.3,0.6 -0.3,0.6 -0.2,0.7 -0.3,0.6 -0.2,0.7 -0.1,0.6 -0.1,0.7 -0.1,0.7 -0.1,0.7 v 0.7 z m 0,13.2 z m 83.6,-79.2 z"
                 style="fill:#99cc99;fill-opacity:1;fill-rule:evenodd;stroke:none"
                 id="path526" /><g
                 id="g532"><text
                   transform="matrix(1,0,0,-1,782.7,403.5)"
                   style="font-variant:normal;font-weight:normal;font-size:10px;font-family:ArialMT;-inkscape-font-specification:ArialMT;writing-mode:lr-tb;fill:#000000;fill-opacity:1;fill-rule:nonzero;stroke:none"
                   id="text530"><tspan
                     x="0 2.79 8.29 11.68 14.98 17.18"
                     y="0"
                     id="tspan528">for(j)</tspan></text></g><g
                 id="g536"><path
                   d="M 770.4,370.9 H 756.2 V 341.1 H 793 v 6.3"
                   style="fill:none;stroke:#000000;stroke-width:1.4433;stroke-linecap:butt;stroke-linejoin:round;stroke-miterlimit:10;stroke-dasharray:none;stroke-opacity:1"
                   id="path534" /></g><path
                 d="m 793,362.7 -5.3,-16 h 10.6 z"
                 style="fill:#000000;fill-opacity:1;fill-rule:evenodd;stroke:none"
                 id="path538" /><path
                 d="m 770.4,379.1 h 45.2 v -16.4 h -45.2 z m 0,0 z m 45.2,-16.4 z"
                 style="fill:#336633;fill-opacity:1;fill-rule:evenodd;stroke:none"
                 id="path540" /><g
                 id="g546"><text
                   transform="matrix(1,0,0,-1,781.7,366.9)"
                   style="font-variant:normal;font-weight:normal;font-size:10px;font-family:ArialMT;-inkscape-font-specification:ArialMT;writing-mode:lr-tb;fill:#ffffff;fill-opacity:1;fill-rule:nonzero;stroke:none"
                   id="text544"><tspan
                     x="0 7.1999998 14.4 19.9"
                     y="0"
                     id="tspan542">CU_t</tspan></text></g><g
                 id="g552"><text
                   transform="matrix(1,0,0,-1,759.2,344.8)"
                   style="font-variant:normal;font-weight:normal;font-size:10px;font-family:ArialMT;-inkscape-font-specification:ArialMT;writing-mode:lr-tb;fill:#000000;fill-opacity:1;fill-rule:nonzero;stroke:none"
                   id="text550"><tspan
                     x="0 7.1999998 13.5 22.700001 25.4"
                     y="0"
                     id="tspan548">RAW t</tspan></text></g><g
                 id="g556"><path
                   d="m 875.5,379.1 v 19.6 H 793 v -4.3"
                   style="fill:none;stroke:#000000;stroke-width:1.4433;stroke-linecap:butt;stroke-linejoin:round;stroke-miterlimit:10;stroke-dasharray:none;stroke-opacity:1"
                   id="path554" /></g><path
                 d="m 793,379.1 5.3,16 h -10.6 z"
                 style="fill:#000000;fill-opacity:1;fill-rule:evenodd;stroke:none"
                 id="path558" /><path
                 d="m 609.7,396.1 h 9.4 v 4.7 l 9.3,-9.3 -9.3,-9.4 v 4.7 h -9.4 z m 0,4.7 z m 18.7,-18.7 z"
                 style="fill:#4ea9d9;fill-opacity:1;fill-rule:evenodd;stroke:none"
                 id="path560" /><path
                 d="m 417.6,253.4 h 539 V 108 h -539 z m 0,0 z M 956.6,108 Z"
                 style="fill:#efefef;fill-opacity:1;fill-rule:evenodd;stroke:none"
                 id="path562" /><g
                 id="g566"><path
                   d="m 417.6,253.4 h 539 V 108 h -539 z"
                   style="fill:none;stroke:#000000;stroke-width:0.7358;stroke-linecap:butt;stroke-linejoin:round;stroke-miterlimit:10;stroke-dasharray:none;stroke-opacity:1"
                   id="path564" /></g><g
                 id="g570"><path
                   d="M 417.6,253.4 Z"
                   style="fill:none;stroke:#000000;stroke-width:0.7358;stroke-linecap:butt;stroke-linejoin:round;stroke-miterlimit:10;stroke-dasharray:none;stroke-opacity:1"
                   id="path568" /></g><g
                 id="g574"><path
                   d="M 956.6,108 Z"
                   style="fill:none;stroke:#000000;stroke-width:0.7358;stroke-linecap:butt;stroke-linejoin:round;stroke-miterlimit:10;stroke-dasharray:none;stroke-opacity:1"
                   id="path572" /></g><g
                 id="g580"><text
                   transform="matrix(1,0,0,-1,593.3,234.2)"
                   style="font-variant:normal;font-weight:normal;font-size:12px;font-family:ArialMT;-inkscape-font-specification:ArialMT;writing-mode:lr-tb;fill:#000000;fill-opacity:1;fill-rule:nonzero;stroke:none"
                   id="text578"><tspan
                     x="0 8.0880003 14.772 18.072001 21.455999 28.139999 32.136002 38.82 42.203999 48.888 55.571999 58.956001 65.639999 71.639999 74.940002 77.627998 84.311996 90.996002 94.379997 102.372 105.756 108.36 118.356 125.04 127.644 134.436 144.336 151.02 157.812 161.112 167.79601 171.17999 173.868 180.552"
                     y="0"
                     id="tspan576">Pattern detection &amp; implementation</tspan></text></g><path
                 d="m 424.8,202.9 v 0 0.9 l 0.1,1 0.1,0.9 0.2,1 0.2,0.9 0.3,0.9 0.3,0.9 0.3,0.9 0.5,0.8 0.4,0.9 0.5,0.8 0.5,0.8 0.6,0.7 0.6,0.7 0.7,0.7 0.7,0.7 0.7,0.6 0.7,0.6 0.8,0.5 0.8,0.5 0.9,0.4 0.8,0.5 0.9,0.3 0.9,0.3 0.9,0.3 0.9,0.2 1,0.2 0.9,0.1 0.9,0.1 h 1 488.4 v 0 h 0.9 l 1,-0.1 0.9,-0.1 1,-0.2 0.9,-0.2 0.9,-0.3 0.9,-0.3 0.9,-0.4 0.8,-0.4 0.8,-0.4 0.9,-0.5 0.7,-0.5 0.8,-0.6 0.7,-0.6 0.7,-0.7 0.6,-0.7 0.7,-0.7 0.5,-0.8 0.6,-0.7 0.5,-0.9 0.4,-0.8 0.4,-0.8 0.4,-0.9 0.3,-0.9 0.3,-0.9 0.2,-0.9 0.2,-1 0.1,-0.9 0.1,-1 v -0.9 -72.6 0 -0.9 l -0.1,-1 -0.1,-0.9 -0.2,-0.9 -0.2,-0.9 -0.3,-0.9 -0.3,-1 -0.4,-0.8 -0.3,-0.9 -0.5,-0.8 -0.5,-0.8 -0.6,-0.8 -0.5,-0.8 -0.6,-0.7 -0.7,-0.6 -0.7,-0.7 -0.7,-0.6 -0.7,-0.6 -0.8,-0.5 -0.8,-0.5 -0.9,-0.5 -0.8,-0.4 -0.9,-0.4 -0.9,-0.3 -0.9,-0.2 -0.9,-0.3 -1,-0.1 -0.9,-0.2 h -1 -0.9 l -488.4,-0.1 v 0 h -1 l -0.9,0.1 -0.9,0.1 -1,0.2 -0.9,0.2 -0.9,0.3 -0.9,0.3 -0.9,0.4 -0.8,0.4 -0.9,0.4 -0.8,0.5 -0.8,0.6 -0.7,0.5 -0.7,0.6 -0.7,0.7 -0.7,0.7 -0.6,0.7 -0.6,0.8 -0.5,0.7 -0.5,0.9 -0.4,0.8 -0.5,0.9 -0.3,0.8 -0.3,0.9 -0.3,0.9 -0.2,1 -0.2,0.9 -0.1,0.9 -0.1,1 v 0.9 z m 0,18.1 z M 949.4,112.2 Z"
                 style="fill:#ffffff;fill-opacity:1;fill-rule:evenodd;stroke:none"
                 id="path582" /><g
                 id="g586"><path
                   d="m 424.8,202.9 v 0 0.9 l 0.1,1 0.1,0.9 0.2,1 0.2,0.9 0.3,0.9 0.3,0.9 0.3,0.9 0.5,0.8 0.4,0.9 0.5,0.8 0.5,0.8 0.6,0.7 0.6,0.7 0.7,0.7 0.7,0.7 0.7,0.6 0.7,0.6 0.8,0.5 0.8,0.5 0.9,0.4 0.8,0.5 0.9,0.3 0.9,0.3 0.9,0.3 0.9,0.2 1,0.2 0.9,0.1 0.9,0.1 h 1 488.4 v 0 h 0.9 l 1,-0.1 0.9,-0.1 1,-0.2 0.9,-0.2 0.9,-0.3 0.9,-0.3 0.9,-0.4 0.8,-0.4 0.8,-0.4 0.9,-0.5 0.7,-0.5 0.8,-0.6 0.7,-0.6 0.7,-0.7 0.6,-0.7 0.7,-0.7 0.5,-0.8 0.6,-0.7 0.5,-0.9 0.4,-0.8 0.4,-0.8 0.4,-0.9 0.3,-0.9 0.3,-0.9 0.2,-0.9 0.2,-1 0.1,-0.9 0.1,-1 v -0.9 -72.6 0 -0.9 l -0.1,-1 -0.1,-0.9 -0.2,-0.9 -0.2,-0.9 -0.3,-0.9 -0.3,-1 -0.4,-0.8 -0.3,-0.9 -0.5,-0.8 -0.5,-0.8 -0.6,-0.8 -0.5,-0.8 -0.6,-0.7 -0.7,-0.6 -0.7,-0.7 -0.7,-0.6 -0.7,-0.6 -0.8,-0.5 -0.8,-0.5 -0.9,-0.5 -0.8,-0.4 -0.9,-0.4 -0.9,-0.3 -0.9,-0.2 -0.9,-0.3 -1,-0.1 -0.9,-0.2 h -1 -0.9 l -488.4,-0.1 v 0 h -1 l -0.9,0.1 -0.9,0.1 -1,0.2 -0.9,0.2 -0.9,0.3 -0.9,0.3 -0.9,0.4 -0.8,0.4 -0.9,0.4 -0.8,0.5 -0.8,0.6 -0.7,0.5 -0.7,0.6 -0.7,0.7 -0.7,0.7 -0.6,0.7 -0.6,0.8 -0.5,0.7 -0.5,0.9 -0.4,0.8 -0.5,0.9 -0.3,0.8 -0.3,0.9 -0.3,0.9 -0.2,1 -0.2,0.9 -0.1,0.9 -0.1,1 v 0.9 z"
                   style="fill:none;stroke:#933904;stroke-width:0.5094;stroke-linecap:butt;stroke-linejoin:round;stroke-miterlimit:10;stroke-dasharray:none;stroke-opacity:1"
                   id="path584" /></g><g
                 id="g590"><path
                   d="M 424.8,221 Z"
                   style="fill:none;stroke:#933904;stroke-width:0.5094;stroke-linecap:butt;stroke-linejoin:round;stroke-miterlimit:10;stroke-dasharray:none;stroke-opacity:1"
                   id="path588" /></g><g
                 id="g594"><path
                   d="M 949.4,112.2 Z"
                   style="fill:none;stroke:#933904;stroke-width:0.5094;stroke-linecap:butt;stroke-linejoin:round;stroke-miterlimit:10;stroke-dasharray:none;stroke-opacity:1"
                   id="path592" /></g><path
                 d="m 431.1,192.2 v 0 0.8 l 0.1,0.8 0.1,0.8 0.2,0.8 0.1,0.7 0.3,0.8 0.2,0.7 0.3,0.7 0.4,0.8 0.3,0.7 0.5,0.6 0.4,0.7 0.5,0.6 0.5,0.6 0.5,0.6 0.6,0.5 0.6,0.5 0.6,0.5 0.7,0.5 0.7,0.4 0.6,0.4 0.8,0.3 0.7,0.3 0.8,0.3 0.7,0.2 0.8,0.2 0.7,0.1 0.8,0.1 0.8,0.1 h 0.8 93.6 v 0 h 0.8 l 0.8,-0.1 0.7,-0.1 0.8,-0.1 0.8,-0.2 0.7,-0.2 0.8,-0.3 0.7,-0.3 0.7,-0.3 0.7,-0.4 0.7,-0.4 0.6,-0.5 0.6,-0.5 0.6,-0.5 0.6,-0.5 0.6,-0.6 0.5,-0.6 0.5,-0.6 0.4,-0.7 0.4,-0.6 0.4,-0.8 0.3,-0.7 0.3,-0.7 0.3,-0.7 0.2,-0.8 0.2,-0.8 0.1,-0.7 0.1,-0.8 0.1,-0.8 v -0.8 l 0.1,-60.4 v 0 -0.8 l -0.1,-0.8 -0.1,-0.8 -0.2,-0.7 -0.1,-0.8 -0.3,-0.8 -0.2,-0.7 -0.3,-0.7 -0.4,-0.7 -0.4,-0.8 -0.4,-0.6 -0.4,-0.7 -0.5,-0.6 -0.5,-0.6 -0.5,-0.6 -0.6,-0.5 -0.6,-0.5 -0.7,-0.5 -0.6,-0.4 -0.7,-0.5 -0.7,-0.3 -0.7,-0.4 -0.7,-0.3 -0.7,-0.2 -0.8,-0.3 -0.8,-0.1 -0.8,-0.2 -0.7,-0.1 h -0.8 l -0.8,-0.1 h -93.6 v 0 h -0.8 l -0.8,0.1 -0.8,0.1 -0.7,0.1 -0.8,0.2 -0.7,0.2 -0.8,0.3 -0.7,0.3 -0.8,0.3 -0.6,0.4 -0.7,0.4 -0.7,0.5 -0.6,0.4 -0.6,0.6 -0.6,0.5 -0.5,0.6 -0.5,0.6 -0.5,0.6 -0.4,0.7 -0.5,0.6 -0.3,0.7 -0.4,0.7 -0.3,0.8 -0.2,0.7 -0.3,0.8 -0.1,0.7 -0.2,0.8 -0.1,0.8 -0.1,0.8 v 0.8 z m 0,15.1 z m 123.8,-90.6 z"
                 style="fill:#cccccc;fill-opacity:1;fill-rule:evenodd;stroke:none"
                 id="path596" /><g
                 id="g602"><text
                   transform="matrix(1,0,0,-1,482.7,196.1)"
                   style="font-variant:normal;font-weight:normal;font-size:10px;font-family:ArialMT;-inkscape-font-specification:ArialMT;writing-mode:lr-tb;fill:#000000;fill-opacity:1;fill-rule:nonzero;stroke:none"
                   id="text600"><tspan
                     x="0 2.79 8.29 11.68 14.98 17.18"
                     y="0"
                     id="tspan598">for(j)</tspan></text></g><g
                 id="g608"><text
                   transform="matrix(1,0,0,-1,539.4,213.8)"
                   style="font-variant:normal;font-weight:normal;font-size:10px;font-family:ArialMT;-inkscape-font-specification:ArialMT;writing-mode:lr-tb;fill:#000000;fill-opacity:1;fill-rule:nonzero;stroke:none"
                   id="text606"><tspan
                     x="0 5.0900002 10.59 18.889999 24.389999 29.889999 32.68"
                     y="0"
                     id="tspan604">compute</tspan></text></g><g
                 id="g614"><text
                   transform="matrix(1,0,0,-1,432.5,180.5)"
                   style="font-variant:normal;font-weight:normal;font-size:10px;font-family:ArialMT;-inkscape-font-specification:ArialMT;writing-mode:lr-tb;fill:#000000;fill-opacity:1;fill-rule:nonzero;stroke:none"
                   id="text612"><tspan
                     x="0 7.1999998 12.7 16.09 21.59 23.790001 25.889999"
                     y="0"
                     id="tspan610">Do-all </tspan></text></g><g
                 id="g620"><text
                   transform="matrix(1,0,0,-1,432.5,168.5)"
                   style="font-variant:normal;font-weight:normal;font-size:10px;font-family:ArialMT;-inkscape-font-specification:ArialMT;writing-mode:lr-tb;fill:#000000;fill-opacity:1;fill-rule:nonzero;stroke:none"
                   id="text618"><tspan
                     x="0 5.5 8.8900003 14.39 19.889999 28.190001 33.689999 36.48 39.18 42.68 48.27 56.470001 62.060001 64.760002 70.260002 75.760002 79.150002 84.650002 86.849998 88.949997 94.540001 96.639999 99.43 102.22 107.72 111.02"
                     y="0"
                     id="tspan616">pragma: &quot;omp parallel for&quot;</tspan></text></g><g
                 id="g626"><text
                   transform="matrix(1,0,0,-1,432.5,156.5)"
                   style="font-variant:normal;font-weight:normal;font-size:10px;font-family:ArialMT;-inkscape-font-specification:ArialMT;writing-mode:lr-tb;fill:#000000;fill-opacity:1;fill-rule:nonzero;stroke:none"
                   id="text624"><tspan
                     x="0 5.5 8.8900003 10.99 16.08 21.58 24.370001 29.870001 32.57 35.360001 38.150002 40.049999 42.150002 44.139999"
                     y="0"
                     id="tspan622">private: ['j']</tspan></text></g><g
                 id="g632"><text
                   transform="matrix(1,0,0,-1,432.5,144.5)"
                   style="font-variant:normal;font-weight:normal;font-size:10px;font-family:ArialMT;-inkscape-font-specification:ArialMT;writing-mode:lr-tb;fill:#000000;fill-opacity:1;fill-rule:nonzero;stroke:none"
                   id="text630"><tspan
                     x="0 5.0900002 10.59 16.09 19.48 24.98 30.48 33.27 35.970001 38.759998 40.66 45.66 47.650002"
                     y="0"
                     id="tspan628">shared: ['s']</tspan></text></g><g
                 id="g638"><text
                   transform="matrix(1,0,0,-1,432.5,132.5)"
                   style="font-variant:normal;font-weight:normal;font-size:10px;font-family:ArialMT;-inkscape-font-specification:ArialMT;writing-mode:lr-tb;fill:#000000;fill-opacity:1;fill-rule:nonzero;stroke:none"
                   id="text636"><tspan
                     x="0 2.79 4.8899999 8.2799997 13.28 16.07 18.860001 24.360001 27.66 29.860001 34.860001 40.450001 43.150002 48.650002 51.439999 54.139999 56.93 58.830002 62.220001 64.120003"
                     y="0"
                     id="tspan634">first private: ['r']</tspan></text></g><path
                 d="m 560.7,191.4 v 0 0.8 l 0.1,0.8 0.1,0.7 0.2,0.8 0.1,0.8 0.3,0.7 0.2,0.8 0.3,0.7 0.3,0.7 0.4,0.7 0.4,0.6 0.5,0.7 0.4,0.6 0.5,0.6 0.6,0.6 0.6,0.5 0.5,0.5 0.7,0.5 0.6,0.4 0.7,0.4 0.7,0.4 0.7,0.3 0.7,0.3 0.7,0.3 0.8,0.2 0.7,0.2 0.8,0.2 h 0.8 l 0.8,0.1 h 0.8 92.8 v 0 h 0.8 l 0.8,-0.1 0.7,-0.1 0.8,-0.1 0.7,-0.2 0.8,-0.2 0.8,-0.3 0.7,-0.3 0.7,-0.3 0.6,-0.4 0.7,-0.4 0.7,-0.4 0.6,-0.5 0.6,-0.5 0.5,-0.6 0.6,-0.5 0.5,-0.6 0.5,-0.6 0.4,-0.7 0.4,-0.6 0.4,-0.7 0.3,-0.7 0.3,-0.7 0.3,-0.8 0.2,-0.7 0.2,-0.8 0.1,-0.8 0.1,-0.7 0.1,-0.8 v -0.8 l 0.1,-59.8 h -0.1 v -0.8 l -0.1,-0.7 -0.1,-0.8 -0.1,-0.7 -0.2,-0.8 -0.2,-0.8 -0.3,-0.7 -0.3,-0.7 -0.3,-0.7 -0.4,-0.7 -0.4,-0.7 -0.4,-0.6 -0.5,-0.6 -0.5,-0.6 -0.6,-0.6 -0.5,-0.5 -0.6,-0.6 -0.6,-0.4 -0.7,-0.5 -0.7,-0.4 -0.6,-0.4 -0.7,-0.3 -0.7,-0.3 -0.8,-0.2 -0.8,-0.3 -0.7,-0.2 -0.8,-0.1 -0.7,-0.1 h -0.8 l -0.8,-0.1 h -92.8 v 0 h -0.8 l -0.8,0.1 -0.8,0.1 -0.8,0.1 -0.7,0.2 -0.8,0.2 -0.7,0.3 -0.7,0.3 -0.7,0.3 -0.7,0.4 -0.7,0.4 -0.6,0.5 -0.7,0.4 -0.5,0.5 -0.6,0.6 -0.6,0.5 -0.5,0.6 -0.4,0.7 -0.5,0.6 -0.4,0.7 -0.4,0.7 -0.3,0.7 -0.3,0.7 -0.2,0.7 -0.3,0.8 -0.1,0.7 -0.2,0.8 -0.1,0.8 -0.1,0.7 v 0.8 z m 0,14.9 z m 122.8,-89.6 z"
                 style="fill:#f8ecd6;fill-opacity:1;fill-rule:evenodd;stroke:none"
                 id="path640" /><g
                 id="g646"><text
                   transform="matrix(1,0,0,-1,611.8,194.7)"
                   style="font-variant:normal;font-weight:normal;font-size:10px;font-family:ArialMT;-inkscape-font-specification:ArialMT;writing-mode:lr-tb;fill:#000000;fill-opacity:1;fill-rule:nonzero;stroke:none"
                   id="text644"><tspan
                     x="0 2.79 8.29 11.68 14.98 17.18"
                     y="0"
                     id="tspan642">for(i)</tspan></text></g><g
                 id="g652"><text
                   transform="matrix(1,0,0,-1,562.9,186.3)"
                   style="font-variant:normal;font-weight:normal;font-size:10px;font-family:ArialMT;-inkscape-font-specification:ArialMT;writing-mode:lr-tb;fill:#000000;fill-opacity:1;fill-rule:nonzero;stroke:none"
                   id="text650"><tspan
                     x="0 7.1999998 12.7 18.200001 23.700001 28.790001 31.49 33.689999 39.189999"
                     y="0"
                     id="tspan648">Reduction</tspan></text></g><g
                 id="g658"><text
                   transform="matrix(1,0,0,-1,562.9,174.3)"
                   style="font-variant:normal;font-weight:normal;font-size:10px;font-family:ArialMT;-inkscape-font-specification:ArialMT;writing-mode:lr-tb;fill:#000000;fill-opacity:1;fill-rule:nonzero;stroke:none"
                   id="text656"><tspan
                     x="0 5.5 8.8000002 14.39 19.889999 28.190001 33.689999 36.48 39.18 42.68 48.18 56.48 61.98 64.769997 70.269997 75.769997 79.160004 84.660004 86.860001 88.959999 94.459999 96.660004 99.360001 102.15 107.65 111.04"
                     y="0"
                     id="tspan654">pragma: &quot;omp parallel for&quot;</tspan></text></g><g
                 id="g664"><text
                   transform="matrix(1,0,0,-1,562.9,162.3)"
                   style="font-variant:normal;font-weight:normal;font-size:10px;font-family:ArialMT;-inkscape-font-specification:ArialMT;writing-mode:lr-tb;fill:#000000;fill-opacity:1;fill-rule:nonzero;stroke:none"
                   id="text662"><tspan
                     x="0 5.5 8.8000002 11 16 21.59 24.290001 29.879999 32.580002 35.369999 38.07 40.060001 42.16 44.060001 46.849998 49.639999 51.540001 53.639999 55.540001"
                     y="0"
                     id="tspan660">private: ['i', 'j']</tspan></text></g><g
                 id="g670"><text
                   transform="matrix(1,0,0,-1,562.9,150.3)"
                   style="font-variant:normal;font-weight:normal;font-size:10px;font-family:ArialMT;-inkscape-font-specification:ArialMT;writing-mode:lr-tb;fill:#000000;fill-opacity:1;fill-rule:nonzero;stroke:none"
                   id="text668"><tspan
                     x="0 5 10.5 16 19.389999 24.889999 30.389999 33.18 35.970001 38.669998 40.869999 46.369999 48.27"
                     y="0"
                     id="tspan666">shared: [a']</tspan></text></g><g
                 id="g676"><text
                   transform="matrix(1,0,0,-1,562.9,138.3)"
                   style="font-variant:normal;font-weight:normal;font-size:10px;font-family:ArialMT;-inkscape-font-specification:ArialMT;writing-mode:lr-tb;fill:#000000;fill-opacity:1;fill-rule:nonzero;stroke:none"
                   id="text674"><tspan
                     x="0 2.7 4.9000001 8.29 13.29 15.99 18.780001 24.280001 27.67 29.870001 34.869999 40.369999 43.16 48.66 51.450001 54.150002 56.939999 58.84 62.23 64.129997 66.830002 69.620003 71.519997 76.610001 78.510002 81.209999 84 86.199997 91.199997 93.099998"
                     y="0"
                     id="tspan672">first private: ['r', 'v', c']</tspan></text></g><g
                 id="g682"><text
                   transform="matrix(1,0,0,-1,562.9,126.3)"
                   style="font-variant:normal;font-weight:normal;font-size:10px;font-family:ArialMT;-inkscape-font-specification:ArialMT;writing-mode:lr-tb;fill:#000000;fill-opacity:1;fill-rule:nonzero;stroke:none"
                   id="text680"><tspan
                     x="0 7.1999998 12.7 18.200001 23.700001 28.790001 31.49 33.689999 39.189999 44.689999 47.48 50.27 52.970001 54.869999 60.669998 62.57 65.360001 68.059998 69.959999 75.050003 76.949997"
                     y="0"
                     id="tspan678">Reduction: ['+', 's']</tspan></text></g><path
                 d="m 689.4,191.4 v 0 0.8 0.7 l 0.1,0.8 0.2,0.8 0.2,0.7 0.2,0.8 0.2,0.7 0.4,0.7 0.3,0.7 0.4,0.8 0.4,0.6 0.4,0.7 0.5,0.6 0.5,0.6 0.5,0.5 0.6,0.6 0.6,0.5 0.6,0.4 0.7,0.5 0.6,0.4 0.7,0.4 0.7,0.3 0.7,0.3 0.8,0.3 0.7,0.2 0.8,0.2 0.8,0.1 0.7,0.1 0.8,0.1 h 0.8 92.8 v 0 h 0.8 l 0.8,-0.1 0.8,-0.1 0.7,-0.1 0.8,-0.2 0.8,-0.2 0.7,-0.3 0.7,-0.3 0.7,-0.3 0.7,-0.4 0.7,-0.4 0.6,-0.5 0.6,-0.4 0.6,-0.5 0.6,-0.6 0.5,-0.6 0.5,-0.6 0.5,-0.6 0.4,-0.6 0.5,-0.7 0.3,-0.7 0.4,-0.7 0.2,-0.7 0.3,-0.7 0.2,-0.8 0.2,-0.7 0.2,-0.8 0.1,-0.8 v -0.7 -0.8 l 0.1,-59.8 v 0 l -0.1,-0.8 v -0.7 l -0.1,-0.8 -0.2,-0.8 -0.1,-0.7 -0.3,-0.8 -0.2,-0.7 -0.3,-0.8 -0.4,-0.7 -0.3,-0.6 -0.4,-0.7 -0.5,-0.6 -0.5,-0.7 -0.5,-0.6 -0.5,-0.5 -0.6,-0.6 -0.6,-0.5 -0.6,-0.5 -0.6,-0.4 -0.7,-0.4 -0.7,-0.4 -0.7,-0.3 -0.7,-0.3 -0.7,-0.3 -0.8,-0.2 -0.8,-0.2 -0.7,-0.1 -0.8,-0.1 -0.8,-0.1 h -0.8 l -92.8,-0.1 v 0.1 h -0.8 l -0.8,0.1 H 702 l -0.8,0.2 -0.8,0.2 -0.7,0.2 -0.8,0.3 -0.7,0.3 -0.7,0.3 -0.7,0.4 -0.6,0.4 -0.7,0.4 -0.6,0.5 -0.6,0.5 -0.6,0.5 -0.5,0.6 -0.5,0.6 -0.5,0.6 -0.4,0.7 -0.4,0.6 -0.4,0.7 -0.3,0.7 -0.4,0.8 -0.2,0.7 -0.2,0.8 -0.2,0.7 -0.2,0.8 -0.1,0.8 v 0.7 0.8 z m 0,14.9 z m 122.7,-89.7 z"
                 style="fill:#f8ecd6;fill-opacity:1;fill-rule:evenodd;stroke:none"
                 id="path684" /><g
                 id="g690"><text
                   transform="matrix(1,0,0,-1,740.5,194.6)"
                   style="font-variant:normal;font-weight:normal;font-size:10px;font-family:ArialMT;-inkscape-font-specification:ArialMT;writing-mode:lr-tb;fill:#000000;fill-opacity:1;fill-rule:nonzero;stroke:none"
                   id="text688"><tspan
                     x="0 2.7 8.1999998 11.59 14.98 17.08"
                     y="0"
                     id="tspan686">for(j)</tspan></text></g><g
                 id="g696"><text
                   transform="matrix(1,0,0,-1,691.5,186.2)"
                   style="font-variant:normal;font-weight:normal;font-size:10px;font-family:ArialMT;-inkscape-font-specification:ArialMT;writing-mode:lr-tb;fill:#000000;fill-opacity:1;fill-rule:nonzero;stroke:none"
                   id="text694"><tspan
                     x="0 7.1999998 12.7 18.200001 23.790001 28.790001 31.58 33.68 39.18"
                     y="0"
                     id="tspan692">Reduction</tspan></text></g><g
                 id="g702"><text
                   transform="matrix(1,0,0,-1,691.5,174.2)"
                   style="font-variant:normal;font-weight:normal;font-size:10px;font-family:ArialMT;-inkscape-font-specification:ArialMT;writing-mode:lr-tb;fill:#000000;fill-opacity:1;fill-rule:nonzero;stroke:none"
                   id="text700"><tspan
                     x="0 5.5 8.8900003 14.39 19.889999 28.190001 33.689999 36.48 39.18 42.68 48.27 56.470001 62.060001 64.760002 70.260002 75.760002 79.150002 84.650002 86.849998 88.949997 94.540001 96.639999 99.43 102.22 107.72 111.02"
                     y="0"
                     id="tspan698">pragma: &quot;omp parallel for&quot;</tspan></text></g><g
                 id="g708"><text
                   transform="matrix(1,0,0,-1,691.5,162.3)"
                   style="font-variant:normal;font-weight:normal;font-size:10px;font-family:ArialMT;-inkscape-font-specification:ArialMT;writing-mode:lr-tb;fill:#000000;fill-opacity:1;fill-rule:nonzero;stroke:none"
                   id="text706"><tspan
                     x="0 5.5 8.8900003 10.99 16.08 21.58 24.370001 29.870001 32.57 35.360001 38.150002 40.049999 42.150002 44.139999"
                     y="0"
                     id="tspan704">private: ['j']</tspan></text></g><g
                 id="g714"><text
                   transform="matrix(1,0,0,-1,691.5,150.3)"
                   style="font-variant:normal;font-weight:normal;font-size:10px;font-family:ArialMT;-inkscape-font-specification:ArialMT;writing-mode:lr-tb;fill:#000000;fill-opacity:1;fill-rule:nonzero;stroke:none"
                   id="text712"><tspan
                     x="0 5.0900002 10.59 16.09 19.48 24.98 30.48 33.27 35.970001 38.759998 40.860001 46.360001 48.349998"
                     y="0"
                     id="tspan710">shared: [a']</tspan></text></g><g
                 id="g720"><text
                   transform="matrix(1,0,0,-1,691.5,138.3)"
                   style="font-variant:normal;font-weight:normal;font-size:10px;font-family:ArialMT;-inkscape-font-specification:ArialMT;writing-mode:lr-tb;fill:#000000;fill-opacity:1;fill-rule:nonzero;stroke:none"
                   id="text718"><tspan
                     x="0 2.79 4.8899999 8.2799997 13.28 16.07 18.860001 24.360001 27.66 29.860001 34.860001 40.450001 43.150002 48.650002 51.439999 54.139999 56.93 58.830002 62.220001 64.120003 66.910004 69.610001 71.510002 76.599998 78.5 81.290001 83.989998 86.190002 88.389999 90.290001"
                     y="0"
                     id="tspan716">first private: ['r', 'v', i']</tspan></text></g><g
                 id="g726"><text
                   transform="matrix(1,0,0,-1,691.5,126.3)"
                   style="font-variant:normal;font-weight:normal;font-size:10px;font-family:ArialMT;-inkscape-font-specification:ArialMT;writing-mode:lr-tb;fill:#000000;fill-opacity:1;fill-rule:nonzero;stroke:none"
                   id="text724"><tspan
                     x="0 7.1999998 12.7 18.200001 23.790001 28.790001 31.58 33.68 39.18 44.77 47.470001 50.259998 52.959999 54.950001 60.650002 62.639999 65.339996 68.129997 70.029999 72.82 74.720001"
                     y="0"
                     id="tspan722">Reduction: ['+', 't']</tspan></text></g><path
                 d="m 818,191.3 v 0 0.8 l 0.1,0.8 0.1,0.8 0.1,0.8 0.2,0.7 0.2,0.8 0.3,0.7 0.3,0.7 0.3,0.7 0.4,0.7 0.4,0.7 0.5,0.6 0.4,0.6 0.5,0.6 0.6,0.6 0.5,0.6 0.6,0.5 0.6,0.4 0.7,0.5 0.7,0.4 0.7,0.4 0.7,0.3 0.7,0.3 0.7,0.2 0.8,0.3 0.7,0.1 0.8,0.2 0.8,0.1 h 0.7 l 0.8,0.1 h 92.9 v 0 l 0.8,-0.1 h 0.7 l 0.8,-0.1 0.8,-0.2 0.7,-0.1 0.8,-0.3 0.7,-0.2 0.7,-0.3 0.7,-0.4 0.7,-0.3 0.7,-0.4 0.6,-0.5 0.6,-0.5 0.6,-0.5 0.6,-0.5 0.6,-0.6 0.5,-0.6 0.4,-0.6 0.5,-0.6 0.4,-0.7 0.4,-0.7 0.3,-0.7 0.3,-0.7 0.2,-0.7 0.3,-0.8 0.2,-0.8 0.1,-0.7 0.1,-0.8 v -0.8 l 0.1,-0.8 v -59.7 0 -0.8 l -0.1,-0.8 -0.1,-0.7 -0.1,-0.8 -0.2,-0.8 -0.2,-0.7 -0.3,-0.8 -0.3,-0.7 -0.3,-0.7 -0.4,-0.7 -0.4,-0.7 -0.5,-0.6 -0.4,-0.6 -0.5,-0.6 -0.6,-0.6 -0.6,-0.5 -0.6,-0.5 -0.6,-0.5 -0.6,-0.4 -0.7,-0.4 -0.7,-0.4 -0.7,-0.4 -0.7,-0.2 -0.7,-0.3 -0.8,-0.2 -0.7,-0.2 -0.8,-0.2 h -0.8 l -0.7,-0.1 h -0.8 l -92.9,-0.1 v 0 l -0.8,0.1 h -0.7 l -0.8,0.1 -0.8,0.2 -0.7,0.2 -0.8,0.2 -0.7,0.2 -0.7,0.3 -0.7,0.4 -0.7,0.4 -0.7,0.4 -0.7,0.4 -0.6,0.5 -0.6,0.5 -0.5,0.5 -0.6,0.6 -0.5,0.6 -0.4,0.6 -0.5,0.6 -0.4,0.7 -0.4,0.7 -0.3,0.7 -0.3,0.7 -0.3,0.8 -0.2,0.7 -0.2,0.8 -0.1,0.8 -0.1,0.7 -0.1,0.8 v 0.8 z m 0,15 z m 122.7,-89.7 z"
                 style="fill:#f8ecd6;fill-opacity:1;fill-rule:evenodd;stroke:none"
                 id="path728" /><g
                 id="g734"><text
                   transform="matrix(1,0,0,-1,869.1,194.6)"
                   style="font-variant:normal;font-weight:normal;font-size:10px;font-family:ArialMT;-inkscape-font-specification:ArialMT;writing-mode:lr-tb;fill:#000000;fill-opacity:1;fill-rule:nonzero;stroke:none"
                   id="text732"><tspan
                     x="0 2.79 8.29 11.68 14.98 17.18"
                     y="0"
                     id="tspan730">for(j)</tspan></text></g><g
                 id="g740"><text
                   transform="matrix(1,0,0,-1,820.1,186.2)"
                   style="font-variant:normal;font-weight:normal;font-size:10px;font-family:ArialMT;-inkscape-font-specification:ArialMT;writing-mode:lr-tb;fill:#000000;fill-opacity:1;fill-rule:nonzero;stroke:none"
                   id="text738"><tspan
                     x="0 7.1999998 12.79 18.290001 23.790001 28.790001 31.58 33.779999 39.279999"
                     y="0"
                     id="tspan736">Reduction</tspan></text></g><g
                 id="g746"><text
                   transform="matrix(1,0,0,-1,820.1,174.2)"
                   style="font-variant:normal;font-weight:normal;font-size:10px;font-family:ArialMT;-inkscape-font-specification:ArialMT;writing-mode:lr-tb;fill:#000000;fill-opacity:1;fill-rule:nonzero;stroke:none"
                   id="text744"><tspan
                     x="0 5.5900002 8.8900003 14.39 19.98 28.280001 33.779999 36.48 39.27 42.77 48.27 56.57 62.07 64.769997 70.360001 75.860001 79.160004 84.75 86.849998 89.050003 94.550003 96.75 99.449997 102.24 107.74 111.13"
                     y="0"
                     id="tspan742">pragma: &quot;omp parallel for&quot;</tspan></text></g><g
                 id="g752"><text
                   transform="matrix(1,0,0,-1,820.1,162.2)"
                   style="font-variant:normal;font-weight:normal;font-size:10px;font-family:ArialMT;-inkscape-font-specification:ArialMT;writing-mode:lr-tb;fill:#000000;fill-opacity:1;fill-rule:nonzero;stroke:none"
                   id="text750"><tspan
                     x="0 5.5900002 8.8900003 11.09 16.09 21.59 24.379999 29.879999 32.669998 35.459999 38.16 40.060001 42.259998 44.16"
                     y="0"
                     id="tspan748">private: ['j']</tspan></text></g><g
                 id="g758"><text
                   transform="matrix(1,0,0,-1,820.1,150.2)"
                   style="font-variant:normal;font-weight:normal;font-size:10px;font-family:ArialMT;-inkscape-font-specification:ArialMT;writing-mode:lr-tb;fill:#000000;fill-opacity:1;fill-rule:nonzero;stroke:none"
                   id="text756"><tspan
                     x="0 5.0900002 10.59 16.09 19.48 24.98 30.48 33.27 35.970001 38.759998 40.959999 46.459999 48.360001"
                     y="0"
                     id="tspan754">shared: [a']</tspan></text></g><g
                 id="g764"><text
                   transform="matrix(1,0,0,-1,820.1,138.2)"
                   style="font-variant:normal;font-weight:normal;font-size:10px;font-family:ArialMT;-inkscape-font-specification:ArialMT;writing-mode:lr-tb;fill:#000000;fill-opacity:1;fill-rule:nonzero;stroke:none"
                   id="text762"><tspan
                     x="0 2.79 4.9899998 8.29 13.38 16.08 18.870001 24.370001 27.76 29.860001 34.950001 40.450001 43.150002 48.740002 51.439999 54.23 57.02 58.919998 62.220001 64.209999 66.910004 69.699997 71.599998 76.599998 78.589996 81.290001 84.080002 86.18 88.379997 90.279999"
                     y="0"
                     id="tspan760">first private: ['r', 'v', i']</tspan></text></g><g
                 id="g770"><text
                   transform="matrix(1,0,0,-1,820.1,126.3)"
                   style="font-variant:normal;font-weight:normal;font-size:10px;font-family:ArialMT;-inkscape-font-specification:ArialMT;writing-mode:lr-tb;fill:#000000;fill-opacity:1;fill-rule:nonzero;stroke:none"
                   id="text768"><tspan
                     x="0 7.1999998 12.79 18.290001 23.790001 28.790001 31.58 33.779999 39.279999 44.779999 47.57 50.27 53.060001 54.959999 60.759998 62.66 65.360001 68.150002 70.050003 75.139999 77.040001"
                     y="0"
                     id="tspan766">Reduction: ['+', 's']</tspan></text></g></g></g><g
             id="g782"><g
               id="g776" /><g
               id="g780"><g
                 clip-path="url(#clipPath26)"
                 opacity="0.5"
                 id="g778" /></g></g></g></g></g></g></svg>
