<?xml version="1.0" encoding="UTF-8"?><svg xmlns="http://www.w3.org/2000/svg" xmlns:xlink="http://www.w3.org/1999/xlink" fill-opacity="1" color-rendering="auto" color-interpolation="auto" text-rendering="auto" stroke="black" stroke-linecap="square" width="364" stroke-miterlimit="10" shape-rendering="auto" stroke-opacity="1" fill="black" stroke-dasharray="none" font-weight="normal" stroke-width="1" height="941" font-family="'Dialog'" font-style="normal" stroke-linejoin="miter" font-size="12px" stroke-dashoffset="0" image-rendering="auto">
  <!--Generated by ySVG 2.6-->
  <defs id="genericDefs"/>
  <g>
    <defs id="defs1">
      <linearGradient x1="57.8597" gradientUnits="userSpaceOnUse" x2="175.6197" y1="164.16" y2="216.32" id="linearGradient1" spreadMethod="reflect">
        <stop stop-opacity="1" stop-color="rgb(232,238,247)" offset="0%"/>
        <stop stop-opacity="1" stop-color="rgb(183,201,227)" offset="100%"/>
      </linearGradient>
      <linearGradient x1="53.2397" gradientUnits="userSpaceOnUse" x2="180.2397" y1="296.32" y2="348.48" id="linearGradient2" spreadMethod="reflect">
        <stop stop-opacity="1" stop-color="rgb(232,238,247)" offset="0%"/>
        <stop stop-opacity="1" stop-color="rgb(183,201,227)" offset="100%"/>
      </linearGradient>
      <linearGradient x1="90.1198" gradientUnits="userSpaceOnUse" x2="321.1198" y1="72.16" y2="133.16" id="linearGradient3" spreadMethod="reflect">
        <stop stop-opacity="1" stop-color="rgb(232,238,247)" offset="0%"/>
        <stop stop-opacity="1" stop-color="rgb(183,201,227)" offset="100%"/>
      </linearGradient>
      <linearGradient x1="235.62" gradientUnits="userSpaceOnUse" x2="353.38" y1="164.16" y2="216.32" id="linearGradient4" spreadMethod="reflect">
        <stop stop-opacity="1" stop-color="rgb(232,238,247)" offset="0%"/>
        <stop stop-opacity="1" stop-color="rgb(183,201,227)" offset="100%"/>
      </linearGradient>
      <linearGradient x1="53.2397" gradientUnits="userSpaceOnUse" x2="180.2397" y1="236.32" y2="276.32" id="linearGradient5" spreadMethod="reflect">
        <stop stop-opacity="1" stop-color="rgb(232,238,247)" offset="0%"/>
        <stop stop-opacity="1" stop-color="rgb(183,201,227)" offset="100%"/>
      </linearGradient>
      <linearGradient x1="199.25" gradientUnits="userSpaceOnUse" x2="326.25" y1="379.48" y2="419.48" id="linearGradient6" spreadMethod="reflect">
        <stop stop-opacity="1" stop-color="rgb(232,238,247)" offset="0%"/>
        <stop stop-opacity="1" stop-color="rgb(183,201,227)" offset="100%"/>
      </linearGradient>
      <linearGradient x1="199.25" gradientUnits="userSpaceOnUse" x2="326.25" y1="439.48" y2="491.64" id="linearGradient7" spreadMethod="reflect">
        <stop stop-opacity="1" stop-color="rgb(232,238,247)" offset="0%"/>
        <stop stop-opacity="1" stop-color="rgb(183,201,227)" offset="100%"/>
      </linearGradient>
      <linearGradient x1="159.75" gradientUnits="userSpaceOnUse" x2="286.75" y1="522.64" y2="562.64" id="linearGradient8" spreadMethod="reflect">
        <stop stop-opacity="1" stop-color="silver" offset="0%"/>
        <stop stop-opacity="1" stop-color="silver" offset="100%"/>
      </linearGradient>
      <linearGradient x1="20" gradientUnits="userSpaceOnUse" x2="147" y1="665.8" y2="705.8" id="linearGradient9" spreadMethod="reflect">
        <stop stop-opacity="1" stop-color="silver" offset="0%"/>
        <stop stop-opacity="1" stop-color="silver" offset="100%"/>
      </linearGradient>
      <linearGradient x1="207" gradientUnits="userSpaceOnUse" x2="334" y1="797.96" y2="837.96" id="linearGradient10" spreadMethod="reflect">
        <stop stop-opacity="1" stop-color="silver" offset="0%"/>
        <stop stop-opacity="1" stop-color="silver" offset="100%"/>
      </linearGradient>
      <linearGradient x1="207" gradientUnits="userSpaceOnUse" x2="334" y1="665.8" y2="705.8" id="linearGradient11" spreadMethod="reflect">
        <stop stop-opacity="1" stop-color="silver" offset="0%"/>
        <stop stop-opacity="1" stop-color="silver" offset="100%"/>
      </linearGradient>
      <linearGradient x1="159.75" gradientUnits="userSpaceOnUse" x2="286.75" y1="582.64" y2="634.8" id="linearGradient12" spreadMethod="reflect">
        <stop stop-opacity="1" stop-color="rgb(232,238,247)" offset="0%"/>
        <stop stop-opacity="1" stop-color="rgb(183,201,227)" offset="100%"/>
      </linearGradient>
      <linearGradient x1="207" gradientUnits="userSpaceOnUse" x2="334" y1="725.8" y2="777.96" id="linearGradient13" spreadMethod="reflect">
        <stop stop-opacity="1" stop-color="rgb(232,238,247)" offset="0%"/>
        <stop stop-opacity="1" stop-color="rgb(183,201,227)" offset="100%"/>
      </linearGradient>
      <linearGradient x1="207" gradientUnits="userSpaceOnUse" x2="334" y1="857.96" y2="910.12" id="linearGradient14" spreadMethod="reflect">
        <stop stop-opacity="1" stop-color="rgb(232,238,247)" offset="0%"/>
        <stop stop-opacity="1" stop-color="rgb(183,201,227)" offset="100%"/>
      </linearGradient>
      <linearGradient x1="142.1198" gradientUnits="userSpaceOnUse" x2="269.1198" y1="0" y2="52.16" id="linearGradient15" spreadMethod="reflect">
        <stop stop-opacity="1" stop-color="rgb(232,238,247)" offset="0%"/>
        <stop stop-opacity="1" stop-color="rgb(183,201,227)" offset="100%"/>
      </linearGradient>
      <clipPath clipPathUnits="userSpaceOnUse" id="clipPath1">
        <path d="M0 0 L364 0 L364 941 L0 941 L0 0 Z"/>
      </clipPath>
      <clipPath clipPathUnits="userSpaceOnUse" id="clipPath2">
        <path d="M5 -15 L369 -15 L369 926 L5 926 L5 -15 Z"/>
      </clipPath>
    </defs>
    <g fill="white" text-rendering="geometricPrecision" shape-rendering="geometricPrecision" transform="translate(-5,15)" stroke="white">
      <rect x="5" width="364" height="941" y="-15" clip-path="url(#clipPath2)" stroke="none"/>
    </g>
    <g fill="url(#linearGradient1)" text-rendering="geometricPrecision" shape-rendering="geometricPrecision" transform="matrix(1,0,0,1,-5,15)" stroke="url(#linearGradient1)">
      <rect x="57.8597" y="164.16" clip-path="url(#clipPath2)" width="117.76" rx="26.08" ry="26.08" height="52.16" stroke="none"/>
    </g>
    <g text-rendering="geometricPrecision" stroke-miterlimit="1.45" shape-rendering="geometricPrecision" transform="matrix(1,0,0,1,-5,15)" stroke-linecap="butt">
      <rect x="57.8597" y="164.16" clip-path="url(#clipPath2)" fill="none" width="117.76" rx="26.08" ry="26.08" height="52.16"/>
      <text x="76.228" xml:space="preserve" y="180.4256" clip-path="url(#clipPath2)" font-family="sans-serif" stroke="none">Instrumented</text>
      <text x="83.5463" xml:space="preserve" y="194.3943" clip-path="url(#clipPath2)" font-family="sans-serif" stroke="none">sequential </text>
      <text x="83.5082" xml:space="preserve" y="208.3631" clip-path="url(#clipPath2)" font-family="sans-serif" stroke="none">executable</text>
    </g>
    <g fill="url(#linearGradient2)" text-rendering="geometricPrecision" shape-rendering="geometricPrecision" transform="matrix(1,0,0,1,-5,15)" stroke="url(#linearGradient2)">
      <rect x="53.2397" y="296.32" clip-path="url(#clipPath2)" width="127" rx="26.08" ry="26.08" height="52.16" stroke="none"/>
    </g>
    <g text-rendering="geometricPrecision" stroke-miterlimit="1.45" shape-rendering="geometricPrecision" transform="matrix(1,0,0,1,-5,15)" stroke-linecap="butt">
      <rect x="53.2397" y="296.32" clip-path="url(#clipPath2)" fill="none" width="127" rx="26.08" ry="26.08" height="52.16"/>
      <text x="60.2846" xml:space="preserve" y="326.5543" clip-path="url(#clipPath2)" font-family="sans-serif" stroke="none">Data dependences</text>
    </g>
    <g fill="url(#linearGradient3)" text-rendering="geometricPrecision" shape-rendering="geometricPrecision" transform="matrix(1,0,0,1,-5,15)" stroke="url(#linearGradient3)">
      <path d="M90.1198 72.16 L321.1198 72.16 L321.1198 133.16 L90.1198 133.16 Z" stroke="none" clip-path="url(#clipPath2)"/>
    </g>
    <g text-rendering="geometricPrecision" stroke-miterlimit="1.45" stroke-width="3" shape-rendering="geometricPrecision" transform="matrix(1,0,0,1,-5,15)" stroke-linecap="butt">
      <path fill="none" d="M90.1198 72.16 L321.1198 72.16 L321.1198 133.16 L90.1198 133.16 Z" clip-path="url(#clipPath2)"/>
      <text x="179.0593" y="92.8456" clip-path="url(#clipPath2)" font-family="sans-serif" stroke="none" stroke-width="1" xml:space="preserve">Compile:</text>
      <text x="108.53" y="106.8143" clip-path="url(#clipPath2)" font-family="sans-serif" stroke="none" stroke-width="1" xml:space="preserve">CC=build/scripts/CC_wrapper.sh</text>
      <text x="100.4675" y="120.7831" clip-path="url(#clipPath2)" font-family="sans-serif" stroke="none" stroke-width="1" xml:space="preserve">CXX=build/scripts/CXX_wrapper.sh</text>
    </g>
    <g fill="url(#linearGradient4)" text-rendering="geometricPrecision" shape-rendering="geometricPrecision" transform="matrix(1,0,0,1,-5,15)" stroke="url(#linearGradient4)">
      <rect x="235.62" y="164.16" clip-path="url(#clipPath2)" width="117.76" rx="26.08" ry="26.08" height="52.16" stroke="none"/>
    </g>
    <g text-rendering="geometricPrecision" stroke-miterlimit="1.45" shape-rendering="geometricPrecision" transform="matrix(1,0,0,1,-5,15)" stroke-linecap="butt">
      <rect x="235.62" y="164.16" clip-path="url(#clipPath2)" fill="none" width="117.76" rx="26.08" ry="26.08" height="52.16"/>
      <text x="249.1748" xml:space="preserve" y="194.3943" clip-path="url(#clipPath2)" font-family="sans-serif" stroke="none">CU Information</text>
    </g>
    <g fill="url(#linearGradient5)" text-rendering="geometricPrecision" shape-rendering="geometricPrecision" transform="matrix(1,0,0,1,-5,15)" stroke="url(#linearGradient5)">
      <path d="M53.2397 236.32 L180.2397 236.32 L180.2397 276.32 L53.2397 276.32 Z" stroke="none" clip-path="url(#clipPath2)"/>
    </g>
    <g text-rendering="geometricPrecision" stroke-miterlimit="1.45" stroke-width="3" shape-rendering="geometricPrecision" transform="matrix(1,0,0,1,-5,15)" stroke-linecap="butt">
      <path fill="none" d="M53.2397 236.32 L180.2397 236.32 L180.2397 276.32 L53.2397 276.32 Z" clip-path="url(#clipPath2)"/>
      <text x="92.561" y="260.4743" clip-path="url(#clipPath2)" font-family="sans-serif" stroke="none" stroke-width="1" xml:space="preserve">Execute</text>
    </g>
    <g fill="url(#linearGradient6)" text-rendering="geometricPrecision" shape-rendering="geometricPrecision" transform="matrix(1,0,0,1,-5,15)" stroke="url(#linearGradient6)">
      <path d="M199.25 379.48 L326.25 379.48 L326.25 419.48 L199.25 419.48 Z" stroke="none" clip-path="url(#clipPath2)"/>
    </g>
    <g text-rendering="geometricPrecision" stroke-miterlimit="1.45" stroke-width="3" shape-rendering="geometricPrecision" transform="matrix(1,0,0,1,-5,15)" stroke-linecap="butt">
      <path fill="none" d="M199.25 379.48 L326.25 379.48 L326.25 419.48 L199.25 419.48 Z" clip-path="url(#clipPath2)"/>
      <text x="208.4395" y="403.6343" clip-path="url(#clipPath2)" font-family="sans-serif" stroke="none" stroke-width="1" xml:space="preserve">DiscoPoP Explorer</text>
    </g>
    <g fill="url(#linearGradient7)" text-rendering="geometricPrecision" shape-rendering="geometricPrecision" transform="matrix(1,0,0,1,-5,15)" stroke="url(#linearGradient7)">
      <rect x="199.25" y="439.48" clip-path="url(#clipPath2)" width="127" rx="26.08" ry="26.08" height="52.16" stroke="none"/>
    </g>
    <g text-rendering="geometricPrecision" stroke-miterlimit="1.45" shape-rendering="geometricPrecision" transform="matrix(1,0,0,1,-5,15)" stroke-linecap="butt">
      <rect x="199.25" y="439.48" clip-path="url(#clipPath2)" fill="none" width="127" rx="26.08" ry="26.08" height="52.16"/>
      <text x="213.4346" xml:space="preserve" y="469.7143" clip-path="url(#clipPath2)" font-family="sans-serif" stroke="none">Parallel patterns</text>
    </g>
    <g fill="url(#linearGradient8)" text-rendering="geometricPrecision" shape-rendering="geometricPrecision" transform="matrix(1,0,0,1,-5,15)" stroke="url(#linearGradient8)">
      <path d="M159.75 522.64 L286.75 522.64 L286.75 562.64 L159.75 562.64 Z" stroke="none" clip-path="url(#clipPath2)"/>
    </g>
    <g text-rendering="geometricPrecision" stroke-miterlimit="1.45" shape-rendering="geometricPrecision" transform="matrix(1,0,0,1,-5,15)" stroke-linecap="butt">
      <path fill="none" d="M159.75 522.64 L286.75 522.64 L286.75 562.64 L159.75 562.64 Z" clip-path="url(#clipPath2)"/>
      <text x="193.8799" xml:space="preserve" y="546.7943" clip-path="url(#clipPath2)" font-family="sans-serif" stroke="none">Optimizer</text>
    </g>
    <g fill="url(#linearGradient9)" text-rendering="geometricPrecision" shape-rendering="geometricPrecision" transform="matrix(1,0,0,1,-5,15)" stroke="url(#linearGradient9)">
      <path d="M20 665.8 L147 665.8 L147 705.8 L20 705.8 Z" stroke="none" clip-path="url(#clipPath2)"/>
    </g>
    <g text-rendering="geometricPrecision" stroke-miterlimit="1.45" shape-rendering="geometricPrecision" transform="matrix(1,0,0,1,-5,15)" stroke-linecap="butt">
      <path fill="none" d="M20 665.8 L147 665.8 L147 705.8 L20 705.8 Z" clip-path="url(#clipPath2)"/>
      <text x="37.2109" xml:space="preserve" y="689.9543" clip-path="url(#clipPath2)" font-family="sans-serif" stroke="none">Config provider</text>
    </g>
    <g fill="url(#linearGradient10)" text-rendering="geometricPrecision" shape-rendering="geometricPrecision" transform="matrix(1,0,0,1,-5,15)" stroke="url(#linearGradient10)">
      <path d="M207 797.96 L334 797.96 L334 837.96 L207 837.96 Z" stroke="none" clip-path="url(#clipPath2)"/>
    </g>
    <g text-rendering="geometricPrecision" stroke-miterlimit="1.45" shape-rendering="geometricPrecision" transform="matrix(1,0,0,1,-5,15)" stroke-linecap="butt">
      <path fill="none" d="M207 797.96 L334 797.96 L334 837.96 L207 837.96 Z" clip-path="url(#clipPath2)"/>
      <text x="221.75" xml:space="preserve" y="822.1143" clip-path="url(#clipPath2)" font-family="sans-serif" stroke="none">Patch applicator</text>
    </g>
    <g fill="url(#linearGradient11)" text-rendering="geometricPrecision" shape-rendering="geometricPrecision" transform="matrix(1,0,0,1,-5,15)" stroke="url(#linearGradient11)">
      <path d="M207 665.8 L334 665.8 L334 705.8 L207 705.8 Z" stroke="none" clip-path="url(#clipPath2)"/>
    </g>
    <g text-rendering="geometricPrecision" stroke-miterlimit="1.45" shape-rendering="geometricPrecision" transform="matrix(1,0,0,1,-5,15)" stroke-linecap="butt">
      <path fill="none" d="M207 665.8 L334 665.8 L334 705.8 L207 705.8 Z" clip-path="url(#clipPath2)"/>
      <text x="222.2158" xml:space="preserve" y="689.9543" clip-path="url(#clipPath2)" font-family="sans-serif" stroke="none">Patch generator</text>
    </g>
    <g fill="url(#linearGradient12)" text-rendering="geometricPrecision" shape-rendering="geometricPrecision" transform="matrix(1,0,0,1,-5,15)" stroke="url(#linearGradient12)">
      <rect x="159.75" y="582.64" clip-path="url(#clipPath2)" width="127" rx="26.08" ry="26.08" height="52.16" stroke="none"/>
    </g>
    <g text-rendering="geometricPrecision" stroke-miterlimit="1.45" shape-rendering="geometricPrecision" transform="matrix(1,0,0,1,-5,15)" stroke-linecap="butt">
      <rect x="159.75" y="582.64" clip-path="url(#clipPath2)" fill="none" width="127" rx="26.08" ry="26.08" height="52.16"/>
      <text x="165.3535" xml:space="preserve" y="612.8743" clip-path="url(#clipPath2)" font-family="sans-serif" stroke="none">Optimized patterns</text>
    </g>
    <g fill="url(#linearGradient13)" text-rendering="geometricPrecision" shape-rendering="geometricPrecision" transform="matrix(1,0,0,1,-5,15)" stroke="url(#linearGradient13)">
      <rect x="207" y="725.8" clip-path="url(#clipPath2)" width="127" rx="26.08" ry="26.08" height="52.16" stroke="none"/>
    </g>
    <g text-rendering="geometricPrecision" stroke-miterlimit="1.45" shape-rendering="geometricPrecision" transform="matrix(1,0,0,1,-5,15)" stroke-linecap="butt">
      <rect x="207" y="725.8" clip-path="url(#clipPath2)" fill="none" width="127" rx="26.08" ry="26.08" height="52.16"/>
      <text x="239.5801" xml:space="preserve" y="756.0343" clip-path="url(#clipPath2)" font-family="sans-serif" stroke="none">Patch files</text>
    </g>
    <g fill="url(#linearGradient14)" text-rendering="geometricPrecision" shape-rendering="geometricPrecision" transform="matrix(1,0,0,1,-5,15)" stroke="url(#linearGradient14)">
      <rect x="207" y="857.96" clip-path="url(#clipPath2)" width="127" rx="26.08" ry="26.08" height="52.16" stroke="none"/>
    </g>
    <g text-rendering="geometricPrecision" stroke-miterlimit="1.45" shape-rendering="geometricPrecision" transform="matrix(1,0,0,1,-5,15)" stroke-linecap="butt">
      <rect x="207" y="857.96" clip-path="url(#clipPath2)" fill="none" width="127" rx="26.08" ry="26.08" height="52.16"/>
      <text x="231.9922" xml:space="preserve" y="888.1943" clip-path="url(#clipPath2)" font-family="sans-serif" stroke="none">Parallel code</text>
    </g>
    <g fill="url(#linearGradient15)" text-rendering="geometricPrecision" shape-rendering="geometricPrecision" transform="matrix(1,0,0,1,-5,15)" stroke="url(#linearGradient15)">
      <rect x="142.1198" y="0" clip-path="url(#clipPath2)" width="127" rx="26.08" ry="26.08" height="52.16" stroke="none"/>
    </g>
    <g text-rendering="geometricPrecision" stroke-miterlimit="1.45" shape-rendering="geometricPrecision" transform="matrix(1,0,0,1,-5,15)" stroke-linecap="butt">
      <rect x="142.1198" y="0" clip-path="url(#clipPath2)" fill="none" width="127" rx="26.08" ry="26.08" height="52.16"/>
      <text x="157.2741" xml:space="preserve" y="30.2343" clip-path="url(#clipPath2)" font-family="sans-serif" stroke="none">Sequential code</text>
    </g>
    <g text-rendering="geometricPrecision" stroke-miterlimit="1.45" shape-rendering="geometricPrecision" transform="matrix(1,0,0,1,-5,15)" stroke-linecap="butt">
      <path fill="none" d="M147.8698 133.1903 L147.8698 148.66 L116.7397 148.66 L116.7397 156.1297" clip-path="url(#clipPath2)"/>
    </g>
    <g text-rendering="geometricPrecision" stroke-miterlimit="1.45" shape-rendering="geometricPrecision" transform="matrix(1,0,0,1,-5,15)" stroke-linecap="butt">
      <path d="M116.7397 164.1297 L121.7397 152.1297 L116.7397 155.1297 L111.7397 152.1297 Z" stroke="none" clip-path="url(#clipPath2)"/>
      <path fill="none" d="M263.3698 133.1903 L263.3698 148.66 L294.5 148.66 L294.5 156.1297" clip-path="url(#clipPath2)"/>
      <path d="M294.5 164.1297 L299.5 152.1297 L294.5 155.1297 L289.5 152.1297 Z" clip-path="url(#clipPath2)" stroke="none"/>
      <path fill="none" d="M116.7397 216.32 L116.7397 228.32" clip-path="url(#clipPath2)"/>
      <path d="M116.7397 236.32 L121.7397 224.32 L116.7397 227.32 L111.7397 224.32 Z" clip-path="url(#clipPath2)" stroke="none"/>
      <path fill="none" d="M116.7397 276.3591 L116.7397 288.281" clip-path="url(#clipPath2)"/>
      <path d="M116.7397 296.281 L121.7397 284.281 L116.7397 287.281 L111.7397 284.281 Z" clip-path="url(#clipPath2)" stroke="none"/>
      <path fill="none" d="M116.7397 348.48 L116.7397 363.98 L231 363.98 L231 371.48" clip-path="url(#clipPath2)"/>
      <path d="M231 379.48 L236 367.48 L231 370.48 L226 367.48 Z" clip-path="url(#clipPath2)" stroke="none"/>
      <path fill="none" d="M294.5 216.32 L294.5 371.48" clip-path="url(#clipPath2)"/>
      <path d="M294.5 379.48 L299.5 367.48 L294.5 370.48 L289.5 367.48 Z" clip-path="url(#clipPath2)" stroke="none"/>
      <path fill="none" d="M262.75 419.5191 L262.75 431.441" clip-path="url(#clipPath2)"/>
      <path d="M262.75 439.441 L267.75 427.441 L262.75 430.441 L257.75 427.441 Z" clip-path="url(#clipPath2)" stroke="none"/>
      <path fill="none" d="M231 491.64 L231 507.14 L223.25 507.14 L223.25 514.64" clip-path="url(#clipPath2)"/>
      <path d="M223.25 522.64 L228.25 510.64 L223.25 513.64 L218.25 510.64 Z" clip-path="url(#clipPath2)" stroke="none"/>
      <path fill="none" d="M294.5 491.64 L294.5 507.14 L302.25 507.14 L302.25 657.7613" clip-path="url(#clipPath2)"/>
      <path d="M302.25 665.7613 L307.25 653.7613 L302.25 656.7613 L297.25 653.7613 Z" clip-path="url(#clipPath2)" stroke="none"/>
    </g>
    <g text-rendering="geometricPrecision" stroke-miterlimit="1.45" shape-rendering="geometricPrecision" transform="matrix(1,0,0,1,-5,15)" stroke-linecap="butt">
      <path fill="none" d="M147 684.3 L147 687.3 L206.9707 687.3 L206.9707 684.3 Z" clip-path="url(#clipPath2)"/>
    </g>
    <g text-rendering="geometricPrecision" stroke-miterlimit="1.45" shape-rendering="geometricPrecision" transform="matrix(1,0,0,1,-5,15)" stroke-linecap="butt">
      <path fill="none" d="M223.25 562.6791 L223.25 574.601" clip-path="url(#clipPath2)"/>
      <path d="M223.25 582.601 L228.25 570.601 L223.25 573.601 L218.25 570.601 Z" clip-path="url(#clipPath2)" stroke="none"/>
      <path fill="none" d="M223.25 634.8 L223.25 650.3 L238.75 650.3 L238.75 657.7697" clip-path="url(#clipPath2)"/>
      <path d="M238.75 665.7697 L243.75 653.7697 L238.75 656.7697 L233.75 653.7697 Z" clip-path="url(#clipPath2)" stroke="none"/>
      <path fill="none" d="M270.5 705.8 L270.5 717.7609" clip-path="url(#clipPath2)"/>
      <path d="M270.5 725.7609 L275.5 713.7609 L270.5 716.7609 L265.5 713.7609 Z" clip-path="url(#clipPath2)" stroke="none"/>
      <path fill="none" d="M270.5 777.96 L270.5 789.96" clip-path="url(#clipPath2)"/>
      <path d="M270.5 797.96 L275.5 785.96 L270.5 788.96 L265.5 785.96 Z" clip-path="url(#clipPath2)" stroke="none"/>
      <path fill="none" d="M270.5 837.9991 L270.5 849.921" clip-path="url(#clipPath2)"/>
      <path d="M270.5 857.921 L275.5 845.921 L270.5 848.921 L265.5 845.921 Z" clip-path="url(#clipPath2)" stroke="none"/>
      <path fill="none" d="M205.6198 52.16 L205.6198 64.16" clip-path="url(#clipPath2)"/>
      <path d="M205.6198 72.16 L210.6198 60.16 L205.6198 63.16 L200.6198 60.16 Z" clip-path="url(#clipPath2)" stroke="none"/>
    </g>
  </g>
</svg>
